# Blender v2.80 (sub 75) OBJ File: ''
# www.blender.org
o Cube
v 0.500000 -0.300000 -0.500000
v 0.500000 -0.300000 -0.300000
v 0.500000 0.500000 -0.500000
v 0.500000 0.500000 -0.300000
v 0.300000 -0.300000 -0.500000
v 0.300000 -0.300000 -0.300000
v 0.300000 0.500000 -0.500000
v 0.300000 0.500000 -0.300000
vt 0.921875 0.726562
vt 0.871875 0.757812
vt 0.871875 0.726562
vt 0.771875 0.945312
vt 0.721875 0.695312
vt 0.771875 0.695312
vt 0.821875 0.695312
vt 0.871875 0.945312
vt 0.821875 0.945312
vt 0.771875 0.695312
vt 0.821875 0.945312
vt 0.771875 0.945312
vt 0.921875 0.695312
vt 0.871875 0.726562
vt 0.871875 0.695312
vt 0.721875 0.695312
vt 0.671875 0.945312
vt 0.671875 0.695312
vt 0.921875 0.757812
vt 0.721875 0.945312
vt 0.871875 0.695312
vt 0.821875 0.695312
vt 0.921875 0.726562
vt 0.721875 0.945312
vn 0.0000 -1.0000 0.0000
vn 0.0000 0.0000 -1.0000
vn 1.0000 0.0000 0.0000
vn 0.0000 0.0000 1.0000
vn 0.0000 1.0000 0.0000
vn -1.0000 0.0000 0.0000
s off
f 1/1/1 6/2/1 5/3/1
f 7/4/2 1/5/2 5/6/2
f 3/7/3 2/8/3 1/9/3
f 4/10/4 6/11/4 2/12/4
f 4/13/5 7/14/5 8/15/5
f 7/16/6 6/17/6 8/18/6
f 1/1/1 2/19/1 6/2/1
f 7/4/2 3/20/2 1/5/2
f 3/7/3 4/21/3 2/8/3
f 4/10/4 8/22/4 6/11/4
f 4/13/5 3/23/5 7/14/5
f 7/16/6 5/24/6 6/17/6
