# Blender v2.80 (sub 75) OBJ File: 'capsule.blend'
# www.blender.org
o Icosphere.001
v 0.276388 0.947220 0.850649
v -0.723607 0.947219 0.525725
v -0.723607 0.947219 -0.525725
v 0.276388 0.947220 -0.850649
v 0.894426 0.947216 0.000000
v 0.000000 1.500000 0.000000
v 0.951058 0.500000 0.309013
v 0.951058 0.500000 -0.309013
v 0.000000 0.500000 1.000000
v 0.587786 0.500000 0.809017
v -0.951058 0.500000 0.309013
v -0.587786 0.500000 0.809017
v -0.587786 0.500000 -0.809017
v -0.951058 0.500000 -0.309013
v 0.587786 0.500000 -0.809017
v 0.000000 0.500000 -1.000000
v 0.688189 1.025736 0.499997
v -0.262869 1.025738 0.809012
v -0.850648 1.025736 0.000000
v -0.262869 1.025738 -0.809012
v 0.688189 1.025736 -0.499997
v 0.162456 1.350654 0.499995
v 0.525730 1.350652 0.000000
v -0.425323 1.350654 0.309011
v -0.425323 1.350654 -0.309011
v 0.162456 1.350654 -0.499995
v 0.000000 -1.500000 0.000000
v 0.723607 -0.947219 0.525725
v -0.276388 -0.947220 0.850649
v -0.894426 -0.947216 0.000000
v -0.276388 -0.947220 -0.850649
v 0.723607 -0.947219 -0.525725
v -0.162456 -1.350654 0.499995
v 0.425323 -1.350654 0.309011
v 0.262869 -1.025738 0.809012
v 0.850648 -1.025736 0.000000
v 0.425323 -1.350654 -0.309011
v -0.525730 -1.350652 0.000000
v -0.688189 -1.025736 0.499997
v -0.162456 -1.350654 -0.499995
v -0.688189 -1.025736 -0.499997
v 0.262869 -1.025738 -0.809012
v 0.951058 -0.500000 0.309013
v 0.951058 -0.500000 -0.309013
v 0.000000 -0.500000 1.000000
v 0.587786 -0.500000 0.809017
v -0.951058 -0.500000 0.309013
v -0.587786 -0.500000 0.809017
v -0.587786 -0.500000 -0.809017
v -0.951058 -0.500000 -0.309013
v 0.587786 -0.500000 -0.809017
v 0.000000 -0.500000 -1.000000
vt 0.818181 0.314921
vt 0.727272 0.314921
vt 0.772726 0.393651
vt 1.000000 0.314921
vt 0.909091 0.314921
vt 0.954545 0.393651
vt 0.272727 0.314921
vt 0.181818 0.314921
vt 0.227273 0.393651
vt 0.454545 0.314921
vt 0.363636 0.314921
vt 0.409090 0.393651
vt 0.636363 0.314921
vt 0.545454 0.314921
vt 0.590909 0.393651
vt 0.500000 0.393651
vt 0.545454 0.472382
vt 0.318182 0.393651
vt 0.363636 0.472382
vt 0.136363 0.393651
vt 0.181818 0.472382
vt 0.090909 0.314921
vt 0.863635 0.393651
vt 0.909090 0.472382
vt 0.681818 0.393651
vt 0.727272 0.472382
vt 0.590909 0.236191
vt 0.500000 0.236191
vt 0.409090 0.236191
vt 0.318182 0.236191
vt 0.227273 0.236191
vt 0.136363 0.236191
vt 0.954545 0.236191
vt 0.863635 0.236191
vt 0.772726 0.236191
vt 0.681818 0.236191
vt 0.045454 0.236191
vt 0.818181 0.000000
vt 0.772726 0.078731
vt 0.863635 0.078731
vt 0.727272 0.157461
vt 0.681818 0.078731
vt 0.636363 0.157461
vt 0.090909 0.000000
vt 0.045454 0.078731
vt 0.136363 0.078731
vt 0.272727 0.000000
vt 0.227273 0.078731
vt 0.318182 0.078731
vt 0.454545 0.000000
vt 0.409090 0.078731
vt 0.500000 0.078731
vt 0.681818 0.236191
vt 0.909090 0.157461
vt 0.818181 0.157461
vt 0.863635 0.236191
vt 0.181818 0.157461
vt 0.090909 0.157461
vt 0.136363 0.236191
vt 0.363636 0.157461
vt 0.272727 0.157461
vt 0.318182 0.236191
vt 0.545454 0.157461
vt 0.454545 0.157461
vt 0.500000 0.236191
vt 0.772726 0.236191
vt 0.954545 0.236191
vt 0.227273 0.236191
vt 0.409090 0.236191
vt 0.590909 0.236191
vt 0.045454 0.236191
vt 0.000000 0.157461
vt 0.590909 0.078731
vt 0.636363 0.000000
vn 0.4089 0.6617 0.6284
vn -0.4713 0.6617 0.5831
vn -0.7002 0.6617 -0.2680
vn 0.0385 0.6617 -0.7488
vn 0.7240 0.6617 -0.1947
vn 0.2680 0.9435 -0.1947
vn 0.4911 0.7947 -0.3568
vn 0.4089 0.6617 -0.6284
vn -0.1024 0.9435 -0.3151
vn -0.1876 0.7947 -0.5773
vn -0.4713 0.6617 -0.5831
vn -0.3313 0.9435 0.0000
vn -0.6071 0.7947 0.0000
vn -0.7002 0.6617 0.2680
vn -0.1024 0.9435 0.3151
vn -0.1876 0.7947 0.5773
vn 0.0385 0.6617 0.7488
vn 0.2680 0.9435 0.1947
vn 0.4911 0.7947 0.3568
vn 0.7240 0.6617 0.1947
vn 0.8897 0.3304 -0.3151
vn 0.7947 0.1876 -0.5773
vn 0.5746 0.3304 -0.7488
vn -0.0247 0.3304 -0.9435
vn -0.3035 0.1876 -0.9342
vn -0.5346 0.3304 -0.7779
vn -0.9050 0.3304 -0.2680
vn -0.9822 0.1876 0.0000
vn -0.9050 0.3304 0.2680
vn -0.5346 0.3304 0.7779
vn -0.3035 0.1876 0.9342
vn -0.0247 0.3304 0.9435
vn 0.5746 0.3304 0.7488
vn 0.7947 0.1876 0.5773
vn 0.8897 0.3304 0.3151
vn 0.3066 0.1256 -0.9435
vn -0.8026 0.1256 -0.5831
vn -0.8026 0.1256 0.5831
vn 0.3066 0.1256 0.9435
vn 0.9921 0.1256 0.0000
vn 0.1024 -0.9435 0.3151
vn 0.7002 -0.6617 0.2680
vn -0.2680 -0.9435 0.1947
vn -0.2680 -0.9435 -0.1947
vn 0.1024 -0.9435 -0.3151
vn 0.9050 -0.3304 0.2680
vn 0.0247 -0.3304 0.9435
vn -0.8897 -0.3304 0.3151
vn -0.5746 -0.3304 -0.7488
vn 0.5346 -0.3304 -0.7779
vn 0.8026 -0.1256 0.5831
vn -0.3066 -0.1256 0.9435
vn -0.9921 -0.1256 0.0000
vn -0.3066 -0.1256 -0.9435
vn 0.8026 -0.1256 -0.5831
vn 0.3035 -0.1876 -0.9342
vn 0.0247 -0.3304 -0.9435
vn -0.7947 -0.1876 -0.5773
vn -0.8897 -0.3304 -0.3151
vn -0.7947 -0.1876 0.5773
vn -0.5746 -0.3304 0.7488
vn 0.3035 -0.1876 0.9342
vn 0.5346 -0.3304 0.7779
vn 0.9822 -0.1876 0.0000
vn 0.9050 -0.3304 -0.2680
vn 0.4713 -0.6617 -0.5831
vn 0.1876 -0.7947 -0.5773
vn -0.0385 -0.6617 -0.7488
vn -0.4089 -0.6617 -0.6284
vn -0.4911 -0.7947 -0.3568
vn -0.7240 -0.6617 -0.1947
vn -0.7240 -0.6617 0.1947
vn -0.4911 -0.7947 0.3568
vn -0.4089 -0.6617 0.6284
vn 0.7002 -0.6617 -0.2680
vn 0.6071 -0.7947 0.0000
vn 0.3313 -0.9435 0.0000
vn -0.0385 -0.6617 0.7488
vn 0.1876 -0.7947 0.5773
vn 0.4713 -0.6617 0.5831
vn 1.0000 0.0000 0.0000
vn 0.8090 0.0000 -0.5878
vn 0.3090 0.0000 -0.9511
vn -0.3090 0.0000 -0.9511
vn -0.8090 0.0000 -0.5878
vn -1.0000 0.0000 0.0000
vn -0.8090 0.0000 0.5878
vn -0.3090 0.0000 0.9511
vn 0.3090 0.0000 0.9511
vn 0.8090 0.0000 0.5878
s off
f 1/1/1 17/2/1 22/3/1
f 2/4/2 18/5/2 24/6/2
f 3/7/3 19/8/3 25/9/3
f 4/10/4 20/11/4 26/12/4
f 5/13/5 21/14/5 23/15/5
f 23/15/6 26/16/6 6/17/6
f 23/15/7 21/14/7 26/16/7
f 21/14/8 4/10/8 26/16/8
f 26/12/9 25/18/9 6/19/9
f 26/12/10 20/11/10 25/18/10
f 20/11/11 3/7/11 25/18/11
f 25/9/12 24/20/12 6/21/12
f 25/9/13 19/8/13 24/20/13
f 19/8/14 2/22/14 24/20/14
f 24/6/15 22/23/15 6/24/15
f 24/6/16 18/5/16 22/23/16
f 18/5/17 1/1/17 22/23/17
f 22/3/18 23/25/18 6/26/18
f 22/3/19 17/2/19 23/25/19
f 17/2/20 5/13/20 23/25/20
f 8/27/21 21/14/21 5/13/21
f 8/27/22 15/28/22 21/14/22
f 15/28/23 4/10/23 21/14/23
f 16/29/24 20/11/24 4/10/24
f 16/29/25 13/30/25 20/11/25
f 13/30/26 3/7/26 20/11/26
f 14/31/27 19/8/27 3/7/27
f 14/31/28 11/32/28 19/8/28
f 11/32/29 2/22/29 19/8/29
f 12/33/30 18/5/30 2/4/30
f 12/33/31 9/34/31 18/5/31
f 9/34/32 1/1/32 18/5/32
f 10/35/33 17/2/33 1/1/33
f 10/35/34 7/36/34 17/2/34
f 7/36/35 5/13/35 17/2/35
f 15/28/36 16/29/36 4/10/36
f 13/30/37 14/31/37 3/7/37
f 11/32/38 12/37/38 2/22/38
f 9/34/39 10/35/39 1/1/39
f 7/36/40 8/27/40 5/13/40
f 27/38/41 34/39/41 33/40/41
f 28/41/42 34/42/42 36/43/42
f 27/44/43 33/45/43 38/46/43
f 27/47/44 38/48/44 40/49/44
f 27/50/45 40/51/45 37/52/45
f 28/41/46 36/43/46 43/53/46
f 29/54/47 35/55/47 45/56/47
f 30/57/48 39/58/48 47/59/48
f 31/60/49 41/61/49 49/62/49
f 32/63/50 42/64/50 51/65/50
f 28/41/51 43/53/51 46/66/51
f 29/54/52 45/56/52 48/67/52
f 30/57/53 47/59/53 50/68/53
f 31/60/54 49/62/54 52/69/54
f 32/63/55 51/65/55 44/70/55
f 51/65/56 42/64/56 52/69/56
f 42/64/57 31/60/57 52/69/57
f 49/62/58 41/61/58 50/68/58
f 41/61/59 30/57/59 50/68/59
f 47/59/60 39/58/60 48/71/60
f 39/58/61 29/72/61 48/71/61
f 45/56/62 35/55/62 46/66/62
f 35/55/63 28/41/63 46/66/63
f 43/53/64 36/43/64 44/70/64
f 36/43/65 32/63/65 44/70/65
f 37/52/66 42/64/66 32/63/66
f 37/52/67 40/51/67 42/64/67
f 40/51/68 31/60/68 42/64/68
f 40/49/69 41/61/69 31/60/69
f 40/49/70 38/48/70 41/61/70
f 38/48/71 30/57/71 41/61/71
f 38/46/72 39/58/72 30/57/72
f 38/46/73 33/45/73 39/58/73
f 33/45/74 29/72/74 39/58/74
f 36/43/75 37/73/75 32/63/75
f 36/43/76 34/42/76 37/73/76
f 34/42/77 27/74/77 37/73/77
f 33/40/78 35/55/78 29/54/78
f 33/40/79 34/39/79 35/55/79
f 34/39/80 28/41/80 35/55/80
f 7/36/81 44/70/81 8/27/81
f 8/27/82 51/65/82 15/28/82
f 15/28/83 52/69/83 16/29/83
f 16/29/84 49/62/84 13/30/84
f 13/30/85 50/68/85 14/31/85
f 14/31/86 47/59/86 11/32/86
f 11/32/87 48/71/87 12/37/87
f 12/37/88 45/56/88 9/34/88
f 9/34/89 46/66/89 10/35/89
f 10/35/90 43/53/90 7/36/90
f 7/36/81 43/53/81 44/70/81
f 8/27/82 44/70/82 51/65/82
f 15/28/83 51/65/83 52/69/83
f 16/29/84 52/69/84 49/62/84
f 13/30/85 49/62/85 50/68/85
f 14/31/86 50/68/86 47/59/86
f 11/32/87 47/59/87 48/71/87
f 12/37/88 48/67/88 45/56/88
f 9/34/89 45/56/89 46/66/89
f 10/35/90 46/66/90 43/53/90
