# Blender v2.80 (sub 75) OBJ File: ''
# www.blender.org
o Wedge2X1_Cube.000
v 0.500000 -0.500000 0.500000
v -0.500000 -0.500000 0.400000
v 0.500000 -0.500000 0.400000
v 0.500000 0.500000 -0.000000
v 0.500000 0.500000 -0.100000
v -0.500000 -0.500000 0.500000
v -0.500000 0.500000 0.000000
v -0.500000 0.500000 -0.100000
v 0.500000 -0.100000 0.200000
v -0.500000 -0.100000 0.200000
v 0.500000 -0.100000 -0.500000
v -0.500000 -0.100000 -0.500000
v 0.500000 0.000000 0.150000
v -0.500000 0.000000 0.150000
v 0.500000 0.000000 -0.500000
v -0.500000 0.000000 -0.500000
vt 0.239189 0.119218
vt 0.357610 0.250797
vt 0.239189 0.250797
vt 0.239189 0.119218
vt 0.127347 0.250797
vt 0.127347 0.119218
vt 0.133926 0.369218
vt 0.120768 0.257376
vt 0.133926 0.250797
vt 0.357610 0.250797
vt 0.370768 0.119218
vt 0.370768 0.250797
vt 0.147084 0.257376
vt 0.133926 0.369218
vt 0.133926 0.250797
vt 0.120768 0.250797
vt 0.120768 0.119218
vt 0.357610 0.119218
vt 0.239189 0.250797
vt 0.120768 0.369218
vt 0.357610 0.119218
vt 0.147084 0.369218
vt 0.319119 0.591043
vt 0.194119 0.716043
vt 0.194119 0.591043
vt 0.207505 0.735556
vt 0.082505 0.798056
vt 0.082505 0.735556
vt 0.220891 0.788337
vt 0.158391 0.913337
vt 0.158391 0.788337
vt 0.131619 0.841043
vt 0.069119 0.966043
vt 0.069119 0.841043
vt 0.163115 0.711393
vt 0.288115 0.773893
vt 0.163115 0.773893
vt 0.142963 0.929331
vt 0.267963 0.679331
vt 0.267963 0.929331
vt 0.319119 0.716043
vt 0.207505 0.798056
vt 0.220891 0.913337
vt 0.131619 0.966043
vt 0.288115 0.711393
vt 0.080463 0.741831
vn 0.0000 -1.0000 0.0000
vn 0.0000 1.0000 0.0000
vn 1.0000 0.0000 0.0000
vn 0.0000 0.0000 -1.0000
vn -1.0000 0.0000 0.0000
vn 0.0000 0.4472 0.8944
vn -0.0000 -0.4472 -0.8944
s off
f 10/1/1 11/2/1 9/3/1
f 15/4/2 14/5/2 13/6/2
f 11/7/3 13/8/3 9/9/3
f 16/10/4 11/11/4 12/12/4
f 14/13/5 12/14/5 10/15/5
f 13/6/6 10/16/6 9/17/6
f 10/1/1 12/18/1 11/2/1
f 15/4/2 16/19/2 14/5/2
f 11/7/3 15/20/3 13/8/3
f 16/10/4 15/21/4 11/11/4
f 14/13/5 16/22/5 12/14/5
f 13/6/6 14/5/6 10/16/6
s 1
f 1/23/1 2/24/1 3/25/1
f 4/26/3 3/27/3 5/28/3
f 6/29/6 4/30/6 7/31/6
f 8/32/7 3/33/7 2/34/7
f 2/35/5 7/36/5 8/37/5
f 5/38/2 7/39/2 4/40/2
f 1/23/1 6/41/1 2/24/1
f 4/26/3 1/42/3 3/27/3
f 6/29/6 1/43/6 4/30/6
f 8/32/7 5/44/7 3/33/7
f 2/35/5 6/45/5 7/36/5
f 5/38/2 8/46/2 7/39/2
