# Blender v2.80 (sub 75) OBJ File: ''
# www.blender.org
o Cube
v 0.500000 -0.400000 -0.500000
v 0.500000 -0.500000 -0.500000
v 0.500000 -0.400000 0.400000
v 0.500000 -0.500000 0.400000
v -0.500000 -0.400000 -0.500000
v -0.500000 -0.500000 -0.500000
v -0.500000 -0.400000 0.400000
v -0.500000 -0.500000 0.400000
v 0.500000 0.400000 -0.500000
v 0.500000 0.400000 0.400000
v -0.500000 0.400000 -0.500000
v -0.500000 0.400000 0.400000
v 0.500000 0.500000 -0.500000
v 0.500000 0.500000 0.400000
v -0.500000 0.500000 -0.500000
v -0.500000 0.500000 0.400000
v 0.500000 -0.400000 0.500000
v 0.500000 -0.500000 0.500000
v -0.500000 -0.400000 0.500000
v -0.500000 -0.500000 0.500000
v 0.500000 0.400000 0.500000
v -0.500000 0.400000 0.500000
v 0.500000 0.500000 0.500000
v -0.500000 0.500000 0.500000
vt 0.966667 0.333333
vt 0.666667 0.000000
vt 0.966667 0.000000
vt 0.000000 0.700000
vt 0.333333 0.666667
vt 0.333333 0.700000
vt 0.300000 0.633333
vt 0.333333 0.333333
vt 0.333333 0.633333
vt 0.000000 1.000000
vt 0.333333 1.000000
vt 0.666667 0.033333
vt 0.366667 0.000000
vt 0.666667 0.000000
vt 1.000000 0.333333
vt 0.966667 0.666667
vt 0.966667 0.333333
vt 0.966667 0.666667
vt 0.666667 0.333333
vt 0.966667 0.333333
vt 0.666667 0.333333
vt 0.366667 0.666667
vt 0.366667 0.333333
vt 0.033333 0.633333
vt 0.000000 0.333333
vt 0.033333 0.333333
vt 0.666667 0.300000
vt 0.366667 0.300000
vt 0.000000 0.033333
vt 0.333333 0.300000
vt 0.000000 0.300000
vt 1.000000 0.333333
vt 0.966667 0.000000
vt 1.000000 0.000000
vt 0.333333 0.333333
vt 0.000000 0.333333
vt 0.333333 0.000000
vt 0.333333 0.033333
vt 0.600000 1.000000
vt 0.333333 0.666667
vt 0.600000 0.666667
vt 0.366667 0.033333
vt 0.333333 0.000000
vt 0.333333 0.333333
vt 0.000000 0.666667
vt 0.000000 0.633333
vt 0.300000 0.666667
vt 0.333333 0.300000
vt 0.033333 0.666667
vt 0.666667 0.333333
vt 0.000000 0.666667
vt 0.300000 0.333333
vt 1.000000 0.666667
vt 0.666667 0.666667
vt 0.666667 0.666667
vt 0.966667 0.333333
vt 0.000000 0.000000
vt 0.333333 1.000000
vt 0.333333 0.033333
vt 0.333333 0.666667
vn 0.0000 1.0000 0.0000
vn 0.0000 -1.0000 0.0000
vn -1.0000 0.0000 0.0000
vn 1.0000 0.0000 0.0000
vn 0.0000 0.0000 -1.0000
vn 0.0000 0.0000 1.0000
s off
f 5/1/1 3/2/1 1/3/1
f 4/4/2 20/5/2 8/6/2
f 7/7/3 6/8/3 8/9/3
f 2/10/2 8/6/2 6/11/2
f 1/12/4 4/13/4 2/14/4
f 5/15/5 2/16/5 6/17/5
f 12/18/2 9/19/2 10/20/2
f 13/21/1 16/22/1 14/23/1
f 12/24/3 15/25/3 11/26/3
f 9/27/4 14/23/4 10/28/4
f 21/29/6 19/30/6 17/31/6
f 11/32/5 13/33/5 9/34/5
f 17/31/6 20/35/6 18/36/6
f 21/29/6 24/37/6 22/38/6
f 7/39/5 10/40/5 3/41/5
f 3/42/4 18/43/4 4/13/4
f 16/22/1 23/44/1 14/23/1
f 12/24/3 24/45/3 16/46/3
f 8/9/3 19/47/3 7/7/3
f 14/23/4 21/48/4 10/28/4
f 12/24/3 19/47/3 22/49/3
f 21/48/4 3/42/4 10/28/4
f 5/1/1 7/50/1 3/2/1
f 4/4/2 18/51/2 20/5/2
f 7/7/3 5/52/3 6/8/3
f 2/10/2 4/4/2 8/6/2
f 1/12/4 3/42/4 4/13/4
f 5/15/5 1/53/5 2/16/5
f 12/18/2 11/54/2 9/19/2
f 13/21/1 15/55/1 16/22/1
f 12/24/3 16/46/3 15/25/3
f 9/27/4 13/21/4 14/23/4
f 21/29/6 22/38/6 19/30/6
f 11/32/5 15/56/5 13/33/5
f 17/31/6 19/30/6 20/35/6
f 21/29/6 23/57/6 24/37/6
f 7/39/5 12/58/5 10/40/5
f 3/42/4 17/59/4 18/43/4
f 16/22/1 24/60/1 23/44/1
f 12/24/3 22/49/3 24/45/3
f 8/9/3 20/5/3 19/47/3
f 14/23/4 23/44/4 21/48/4
f 12/24/3 7/7/3 19/47/3
f 21/48/4 17/59/4 3/42/4
