# Blender v2.80 (sub 75) OBJ File: ''
# www.blender.org
o Cube_Cube.002
v -0.500000 -0.500000 -0.400000
v -0.500000 0.000000 -0.400000
v -0.500000 -0.500000 -0.500000
v -0.500000 0.000000 -0.500000
v 0.500000 -0.500000 -0.400000
v 0.500000 0.000000 -0.400000
v 0.500000 -0.500000 -0.500000
v 0.500000 0.000000 -0.500000
vt 0.187500 0.812500
vt 0.200000 0.937500
vt 0.187500 0.937500
vt 0.187500 0.812500
vt 0.312500 0.687500
vt 0.312500 0.812500
vt 0.237500 0.937500
vt 0.225000 0.812500
vt 0.237500 0.812500
vt 0.062500 0.687500
vt 0.187500 0.812500
vt 0.062500 0.812500
vt 0.212500 0.812500
vt 0.225000 0.937500
vt 0.212500 0.937500
vt 0.212500 0.937500
vt 0.200000 0.812500
vt 0.212500 0.812500
vt 0.200000 0.812500
vt 0.187500 0.687500
vt 0.225000 0.937500
vt 0.187500 0.687500
vt 0.200000 0.937500
vn -1.0000 0.0000 0.0000
vn 0.0000 0.0000 -1.0000
vn 1.0000 0.0000 0.0000
vn 0.0000 0.0000 1.0000
vn 0.0000 -1.0000 0.0000
vn 0.0000 1.0000 0.0000
s off
f 2/1/1 3/2/1 1/3/1
f 4/4/2 7/5/2 3/6/2
f 8/7/3 5/8/3 7/9/3
f 6/10/4 1/11/4 5/12/4
f 7/13/5 1/14/5 3/15/5
f 4/16/6 6/17/6 8/18/6
f 2/1/1 4/19/1 3/2/1
f 4/4/2 8/20/2 7/5/2
f 8/7/3 6/21/3 5/8/3
f 6/10/4 2/22/4 1/11/4
f 7/13/5 5/8/5 1/14/5
f 4/16/6 2/23/6 6/17/6
