# Blender v2.80 (sub 75) OBJ File: ''
# www.blender.org
o Plane
v 0.400000 -0.500000 0.500000
v 0.500000 -0.500000 0.500000
v -0.100000 -0.500000 -0.500000
v 0.000000 -0.500000 -0.500000
v -0.100000 -0.500000 -0.500000
v -0.500000 -0.500000 -0.500000
v -0.400000 0.500000 -0.500000
v -0.500000 0.500000 -0.500000
v -0.100000 0.500000 0.500000
v -0.000000 0.500000 0.500000
v -0.050000 -0.500000 -0.400000
v -0.500000 -0.500000 -0.400000
v -0.500000 0.500000 -0.500000
v -0.500000 0.500000 -0.400000
v -0.460000 0.500000 -0.400000
v -0.500000 -0.100000 0.500000
v -0.500000 -0.100000 -0.400000
v 0.200000 -0.100000 0.500000
v -0.210000 -0.100000 -0.400000
v -0.500000 0.000000 0.500000
v -0.500000 0.000000 -0.400000
v 0.150000 0.000000 0.500000
v -0.250000 0.000000 -0.400000
vt 0.258668 0.949559
vt 0.267472 0.841790
vt 0.267472 0.954050
vt 0.258318 0.830387
vt 0.267457 0.725973
vt 0.267457 0.834116
vt 0.040530 0.834368
vt 0.145470 0.741070
vt 0.145470 0.849129
vt 0.249179 0.732402
vt 0.146706 0.828513
vt 0.145470 0.722244
vt 0.258318 0.830387
vt 0.249179 0.725973
vt 0.258318 0.722244
vt 0.250420 0.894876
vt 0.260263 0.935039
vt 0.250420 0.935039
vt 0.123359 0.912333
vt 0.083986 0.912333
vt 0.083986 0.811925
vt 0.250405 0.784580
vt 0.260162 0.685214
vt 0.260162 0.784754
vt 0.123359 0.813416
vt 0.127015 0.811925
vt 0.127015 0.822739
vt 0.237678 0.800095
vt 0.241616 0.900503
vt 0.197321 0.900503
vt 0.148571 0.270384
vt 0.177116 0.180017
vt 0.217474 0.270384
vt 0.104139 0.282213
vt 0.079531 0.191846
vt 0.104139 0.191846
vt 0.290158 0.069981
vt 0.280314 0.135246
vt 0.280314 0.064961
vt 0.280329 0.180017
vt 0.270572 0.269777
vt 0.270572 0.180191
vt 0.258668 0.837300
vt 0.258318 0.722244
vt 0.037057 0.722244
vt 0.249179 0.837300
vt 0.249179 0.834116
vt 0.260263 0.889856
vt 0.250405 0.685039
vt 0.241616 0.800095
vt 0.148571 0.180017
vt 0.040158 0.282214
vt 0.290158 0.135246
vt 0.280329 0.269603
vn 0.0000 -1.0000 0.0000
vn 0.0000 0.0000 -1.0000
vn 0.8704 0.3482 -0.3482
vn -0.8165 -0.4082 0.4082
vn 0.0000 1.0000 0.0000
vn -1.0000 0.0000 0.0000
vn 0.0000 -0.0000 1.0000
vn 0.8165 0.4082 -0.4082
vn -0.8704 -0.3482 0.3482
s off
f 1/1/1 4/2/1 2/3/1
f 3/4/2 7/5/2 4/6/2
f 10/7/3 4/8/3 7/9/3
f 9/10/4 3/11/4 1/12/4
f 7/13/5 9/14/5 10/15/5
f 5/16/1 12/17/1 6/18/1
f 5/19/2 6/20/2 13/21/2
f 13/22/6 12/23/6 14/24/6
f 14/25/5 15/26/5 13/27/5
f 15/28/7 12/29/7 11/30/7
f 16/31/1 19/32/1 18/33/1
f 20/34/5 23/35/5 21/36/5
f 22/37/7 16/38/7 18/39/7
f 20/40/6 17/41/6 16/42/6
f 1/12/7 10/15/7 9/10/7
f 1/1/1 3/43/1 4/2/1
f 3/4/2 8/44/2 7/5/2
f 10/7/8 2/45/8 4/8/8
f 9/10/9 8/46/9 3/11/9
f 7/13/5 8/47/5 9/14/5
f 5/16/1 11/48/1 12/17/1
f 13/22/6 6/49/6 12/23/6
f 15/28/7 14/50/7 12/29/7
f 16/31/1 17/51/1 19/32/1
f 20/34/5 22/52/5 23/35/5
f 22/37/7 20/53/7 16/38/7
f 20/40/6 21/54/6 17/41/6
f 1/12/7 2/45/7 10/15/7
