# Blender v2.80 (sub 75) OBJ File: ''
# www.blender.org
mtllib half-nose.mtl
o Cube
v 0.500000 0.500000 0.500000
v 0.500000 -0.500000 0.500000
v 0.000000 0.500000 0.000000
v 0.000000 -0.500000 0.000000
v -0.500000 0.500000 0.500000
v -0.500000 -0.500000 0.500000
vt 1.000000 0.500000
vt 1.000000 1.000000
vt 0.707107 0.750000
vt 0.000000 0.500000
vt 0.000000 0.000000
vt 0.585786 0.000000
vt 0.585786 0.500000
vt 1.000000 0.000000
vt 1.000000 0.500000
vt 0.000000 1.000000
vt 0.000000 0.500000
vt 0.414213 0.500000
vt 0.414214 1.000000
vt 0.414214 0.750000
vt 0.707107 0.500000
vt 0.707107 1.000000
vn 0.0000 1.0000 0.0000
vn 0.0000 0.0000 1.0000
vn -0.7071 0.0000 -0.7071
vn 0.7071 0.0000 -0.7071
vn 0.0000 -1.0000 0.0000
usemtl Material
s off
f 5/1/1 1/2/1 3/3/1
f 2/4/2 1/5/2 5/6/2 6/7/2
f 6/7/3 5/6/3 3/8/3 4/9/3
f 4/10/4 3/11/4 1/12/4 2/13/4
f 4/14/5 2/15/5 6/16/5
