# Blender v2.80 (sub 75) OBJ File: ''
# www.blender.org
o Cylinder_Cylinder.001
v -0.000000 -0.500000 -0.250000
v -0.000000 0.500000 -0.250000
v 0.125000 -0.500000 -0.216506
v 0.125000 0.500000 -0.216506
v 0.216506 -0.500000 -0.125000
v 0.216506 0.500000 -0.125000
v 0.250000 -0.500000 0.000000
v 0.250000 0.500000 0.000000
v 0.216506 -0.500000 0.125000
v 0.216506 0.500000 0.125000
v 0.125000 -0.500000 0.216506
v 0.125000 0.500000 0.216506
v 0.000000 -0.500000 0.250000
v 0.000000 0.500000 0.250000
v -0.125000 -0.500000 0.216506
v -0.125000 0.500000 0.216506
v -0.216506 -0.500000 0.125000
v -0.216506 0.500000 0.125000
v -0.250000 -0.500000 0.000000
v -0.250000 0.500000 0.000000
v -0.216506 -0.500000 -0.125000
v -0.216506 0.500000 -0.125000
v -0.125000 -0.500000 -0.216506
v -0.125000 0.500000 -0.216506
vt 0.298828 0.318203
vt 0.277995 0.193203
vt 0.298828 0.193203
vt 0.277995 0.318203
vt 0.257162 0.193203
vt 0.257162 0.318203
vt 0.236328 0.193203
vt 0.236328 0.318203
vt 0.215495 0.193203
vt 0.215495 0.318203
vt 0.194662 0.193203
vt 0.194662 0.318203
vt 0.173828 0.193203
vt 0.173828 0.318203
vt 0.152995 0.193203
vt 0.152995 0.318203
vt 0.132162 0.193203
vt 0.132162 0.318203
vt 0.111328 0.193203
vt 0.111328 0.318203
vt 0.090495 0.193203
vt 0.163290 0.100703
vt 0.163290 0.160703
vt 0.059367 0.160703
vt 0.090495 0.318203
vt 0.069662 0.193203
vt 0.069662 0.318203
vt 0.048828 0.193203
vt 0.206328 0.078742
vt 0.176328 0.130703
vt 0.206328 0.182665
vt 0.141328 0.182665
vt 0.111328 0.190703
vt 0.081328 0.182665
vt 0.051328 0.130703
vt 0.059367 0.100703
vt 0.081328 0.078742
vt 0.111328 0.070703
vt 0.141328 0.078742
vt 0.171328 0.130703
vt 0.048828 0.318203
vt 0.236328 0.190703
vt 0.266328 0.182665
vt 0.288290 0.160703
vt 0.296328 0.130703
vt 0.288290 0.100703
vt 0.266328 0.078742
vt 0.236328 0.070703
vt 0.184367 0.100703
vt 0.184367 0.160703
vn 0.2588 0.0000 -0.9659
vn 0.7071 0.0000 -0.7071
vn 0.9659 0.0000 -0.2588
vn 0.9659 0.0000 0.2588
vn 0.7071 0.0000 0.7071
vn 0.2588 0.0000 0.9659
vn -0.2588 0.0000 0.9659
vn -0.7071 0.0000 0.7071
vn -0.9659 0.0000 0.2588
vn -0.9659 0.0000 -0.2588
vn 0.0000 1.0000 0.0000
vn -0.7071 0.0000 -0.7071
vn -0.2588 0.0000 -0.9659
vn 0.0000 -1.0000 0.0000
s off
f 2/1/1 3/2/1 1/3/1
f 4/4/2 5/5/2 3/2/2
f 6/6/3 7/7/3 5/5/3
f 8/8/4 9/9/4 7/7/4
f 10/10/5 11/11/5 9/9/5
f 12/12/6 13/13/6 11/11/6
f 14/14/7 15/15/7 13/13/7
f 16/16/8 17/17/8 15/15/8
f 18/18/9 19/19/9 17/17/9
f 20/20/10 21/21/10 19/19/10
f 10/22/11 6/23/11 22/24/11
f 22/25/12 23/26/12 21/21/12
f 24/27/13 1/28/13 23/26/13
f 15/29/14 19/30/14 23/31/14
f 2/1/1 4/4/1 3/2/1
f 4/4/2 6/6/2 5/5/2
f 6/6/3 8/8/3 7/7/3
f 8/8/4 10/10/4 9/9/4
f 10/10/5 12/12/5 11/11/5
f 12/12/6 14/14/6 13/13/6
f 14/14/7 16/16/7 15/15/7
f 16/16/8 18/18/8 17/17/8
f 18/18/9 20/20/9 19/19/9
f 20/20/10 22/25/10 21/21/10
f 6/23/11 4/32/11 2/33/11
f 2/33/11 24/34/11 22/24/11
f 22/24/11 20/35/11 18/36/11
f 18/36/11 16/37/11 14/38/11
f 14/38/11 12/39/11 10/22/11
f 10/22/11 8/40/11 6/23/11
f 6/23/11 2/33/11 22/24/11
f 22/24/11 18/36/11 14/38/11
f 14/38/11 10/22/11 22/24/11
f 22/25/12 24/27/12 23/26/12
f 24/27/13 2/41/13 1/28/13
f 23/31/14 1/42/14 3/43/14
f 3/43/14 5/44/14 7/45/14
f 7/45/14 9/46/14 15/29/14
f 9/46/14 11/47/14 15/29/14
f 11/47/14 13/48/14 15/29/14
f 15/29/14 17/49/14 19/30/14
f 19/30/14 21/50/14 23/31/14
f 23/31/14 3/43/14 15/29/14
f 3/43/14 7/45/14 15/29/14
