# Blender v2.80 (sub 75) OBJ File: ''
# www.blender.org
o Cube.003
v -0.500000 -0.500000 -0.500000
v 0.500000 -0.500000 -0.500000
v -0.500000 -0.500000 0.500000
v -0.500000 0.500000 -0.500000
vt 0.378937 1.000000
vt 0.378937 0.585786
vt 0.000000 1.000000
vt 1.000000 0.000000
vt 0.732051 0.292893
vt 1.000000 0.585787
vt 0.000000 0.292893
vt 0.464102 0.585786
vt 0.464101 0.000000
vt 0.464102 0.292893
vt 0.732051 0.585787
vt 0.732051 0.000000
vn 0.0000 -1.0000 -0.0000
vn 0.0000 0.0000 -1.0000
vn 0.5774 0.5774 0.5774
vn -1.0000 0.0000 0.0000
s 1
f 1/1/1 2/2/1 3/3/1
f 2/4/2 1/5/2 4/6/2
f 4/7/3 3/8/3 2/9/3
f 1/10/4 3/11/4 4/12/4
