# Blender v2.80 (sub 75) OBJ File: ''
# www.blender.org
o Wedge2X2_Cube.002
v 1.000000 -1.000000 1.000000
v 1.000000 -1.000000 -1.000000
v -1.000000 -1.000000 -1.000000
v -1.000000 0.000000 -1.000000
v -1.000000 -1.000000 1.000000
v -1.000000 0.000000 1.000000
vt 0.375000 0.750000
vt 0.625000 0.875000
vt 0.250000 0.750000
vt 0.750000 0.750000
vt 0.375000 0.500000
vt 0.750000 0.500000
vt 0.250000 0.500000
vt 0.625000 0.375000
vt 0.375000 0.375000
vn 0.0000 0.0000 1.0000
vn 0.4472 0.8944 0.0000
vn 0.0000 -1.0000 0.0000
vn 0.0000 0.0000 -1.0000
vn -1.0000 0.0000 0.0000
s off
f 1/1/1 6/2/1 5/3/1
f 6/4/2 2/5/2 4/6/2
f 2/5/3 5/3/3 3/7/3
f 4/8/4 2/5/4 3/9/4
f 4/8/5 5/3/5 6/2/5
f 6/4/2 1/1/2 2/5/2
f 2/5/3 1/1/3 5/3/3
f 4/8/5 3/7/5 5/3/5
