# Blender v2.80 (sub 75) OBJ File: ''
# www.blender.org
o Wedge2X1_Cube.001
v -1.000000 -1.000000 1.000000
v -1.000000 1.000000 1.000000
v -1.000000 -1.000000 -1.000000
v -1.000000 1.000000 -1.000000
v 1.000000 -1.000000 -1.000000
v 1.000000 0.000000 -1.000000
v 1.000000 -1.000000 1.000000
v 1.000000 0.000000 1.000000
vt 0.625000 0.000000
vt 0.375000 0.250000
vt 0.375000 0.000000
vt 0.625000 0.875000
vt 0.375000 1.000000
vt 0.375000 0.875000
vt 0.875000 0.500000
vt 0.750000 0.750000
vt 0.750000 0.500000
vt 0.250000 0.500000
vt 0.125000 0.750000
vt 0.125000 0.500000
vt 0.625000 0.375000
vt 0.375000 0.375000
vt 0.625000 0.250000
vt 0.625000 1.000000
vt 0.875000 0.750000
vt 0.250000 0.750000
vn -1.0000 0.0000 0.0000
vn 0.0000 0.0000 1.0000
vn 0.4472 0.8944 0.0000
vn 0.0000 -1.0000 0.0000
vn 0.0000 0.0000 -1.0000
vn 1.0000 0.0000 0.0000
s off
f 2/1/1 3/2/1 1/3/1
f 8/4/2 1/5/2 7/6/2
f 4/7/3 8/8/3 6/9/3
f 5/10/4 1/11/4 3/12/4
f 3/2/5 6/13/5 5/14/5
f 7/6/6 6/13/6 8/4/6
f 2/1/1 4/15/1 3/2/1
f 8/4/2 2/16/2 1/5/2
f 4/7/3 2/17/3 8/8/3
f 5/10/4 7/18/4 1/11/4
f 3/2/5 4/15/5 6/13/5
f 7/6/6 5/10/6 6/13/6
