# Blender v2.80 (sub 75) OBJ File: ''
# www.blender.org
o Wedge2X1_Cube.001
v -0.500000 0.500000 0.500000
v -0.500000 -0.500000 -0.500000
v -0.500000 -0.500000 0.500000
v 0.500000 -0.000000 0.500000
v 0.500000 -0.500000 0.500000
v -0.500000 0.500000 -0.500000
v 0.500000 0.000000 -0.500000
v 0.500000 -0.500000 -0.500000
vt 0.295866 0.036073
vt 0.170866 0.161073
vt 0.170866 0.036073
vt 0.184252 0.180586
vt 0.059252 0.243086
vt 0.059252 0.180586
vt 0.220891 0.788337
vt 0.158391 0.913337
vt 0.158391 0.788337
vt 0.108366 0.286073
vt 0.045866 0.411073
vt 0.045866 0.286073
vt 0.139862 0.156422
vt 0.264862 0.218922
vt 0.139862 0.218922
vt 0.142963 0.929331
vt 0.267963 0.679331
vt 0.267963 0.929331
vt 0.295866 0.161073
vt 0.184252 0.243086
vt 0.220891 0.913337
vt 0.108366 0.411073
vt 0.264862 0.156422
vt 0.080463 0.741831
vn -1.0000 -0.0000 0.0000
vn 0.0000 -0.0000 1.0000
vn 0.4472 0.8944 0.0000
vn 0.0000 -1.0000 -0.0000
vn 0.0000 0.0000 -1.0000
vn 1.0000 0.0000 0.0000
s 1
f 1/1/1 2/2/1 3/3/1
f 4/4/2 3/5/2 5/6/2
f 6/7/3 4/8/3 7/9/3
f 8/10/4 3/11/4 2/12/4
f 2/13/5 7/14/5 8/15/5
f 5/16/6 7/17/6 4/18/6
f 1/1/1 6/19/1 2/2/1
f 4/4/2 1/20/2 3/5/2
f 6/7/3 1/21/3 4/8/3
f 8/10/4 5/22/4 3/11/4
f 2/13/5 6/23/5 7/14/5
f 5/16/6 8/24/6 7/17/6
