# Blender v2.80 (sub 75) OBJ File: ''
# www.blender.org
o Wedge2X2_Cube.002
v 0.500000 -0.500000 0.500000
v -0.500000 -0.000000 0.500000
v -0.500000 -0.500000 0.500000
v 0.500000 -0.500000 -0.500000
v -0.500000 0.000000 -0.500000
v -0.500000 -0.500000 -0.500000
vt 0.375000 0.750000
vt 0.625000 0.875000
vt 0.250000 0.750000
vt 0.750000 0.750000
vt 0.375000 0.500000
vt 0.750000 0.500000
vt 0.250000 0.500000
vt 0.625000 0.375000
vt 0.375000 0.375000
vn 0.0000 -0.0000 1.0000
vn 0.4472 0.8944 0.0000
vn 0.0000 -1.0000 -0.0000
vn 0.0000 0.0000 -1.0000
vn -1.0000 0.0000 0.0000
s 1
f 1/1/1 2/2/1 3/3/1
f 2/4/2 4/5/2 5/6/2
f 4/5/3 3/3/3 6/7/3
f 5/8/4 4/5/4 6/9/4
f 5/8/5 3/3/5 2/2/5
f 2/4/2 1/1/2 4/5/2
f 4/5/3 1/1/3 3/3/3
f 5/8/5 6/7/5 3/3/5
