# Blender v2.81 (sub 16) OBJ File: ''
# www.blender.org
o Sphere
v 0.000000 -0.500000 -1.000000
v 0.000000 -0.695090 -0.980785
v 0.000000 -1.055570 -0.831470
v 0.000000 -1.207107 -0.707107
v 0.000000 -1.331470 -0.555570
v 0.000000 -1.423880 -0.382683
v 0.500000 -0.500000 -0.866025
v 0.490393 -0.695090 -0.849385
v 0.461940 -0.882683 -0.800103
v 0.415735 -1.055570 -0.720074
v 0.353554 -1.207107 -0.612372
v 0.277785 -1.331470 -0.481138
v 0.191342 -1.423880 -0.331413
v 0.097545 -1.480785 -0.168953
v 0.866026 -0.500000 -0.500000
v 0.849385 -0.695090 -0.490392
v 0.800103 -0.882683 -0.461940
v 0.720074 -1.055570 -0.415735
v 0.612373 -1.207107 -0.353553
v 0.481138 -1.331470 -0.277785
v 0.331414 -1.423880 -0.191341
v 0.168953 -1.480785 -0.097545
v 1.000000 -0.500000 0.000000
v 0.980786 -0.695090 0.000000
v 0.923880 -0.882683 0.000000
v 0.831470 -1.055570 0.000000
v 0.707107 -1.207107 0.000000
v 0.555570 -1.331470 0.000000
v 0.382684 -1.423880 0.000000
v 0.195090 -1.480785 0.000000
v 0.866026 -0.500000 0.500000
v 0.849385 -0.695090 0.490393
v 0.800103 -0.882683 0.461940
v 0.720074 -1.055570 0.415735
v 0.612373 -1.207107 0.353554
v 0.481138 -1.331470 0.277786
v 0.331414 -1.423880 0.191342
v 0.168953 -1.480785 0.097546
v 0.500000 -0.500000 0.866026
v 0.490393 -0.695090 0.849386
v 0.461940 -0.882683 0.800104
v 0.415735 -1.055570 0.720074
v 0.353554 -1.207107 0.612373
v 0.277785 -1.331470 0.481138
v 0.191342 -1.423880 0.331414
v 0.097545 -1.480785 0.168954
v -0.000000 -0.500000 1.000000
v -0.000000 -0.695090 0.980786
v -0.000000 -0.882683 0.923880
v -0.000000 -1.055570 0.831470
v -0.000000 -1.207107 0.707107
v -0.000000 -1.331470 0.555571
v -0.000000 -1.423880 0.382684
v -0.000000 -1.480785 0.195091
v -0.500000 -0.500000 0.866026
v -0.490393 -0.695090 0.849386
v -0.461940 -0.882683 0.800104
v -0.415735 -1.055570 0.720074
v -0.353554 -1.207107 0.612373
v -0.277785 -1.331470 0.481138
v -0.191342 -1.423880 0.331414
v -0.097545 -1.480785 0.168954
v -0.866026 -0.500000 0.500000
v -0.849385 -0.695090 0.490393
v -0.800103 -0.882683 0.461940
v -0.720074 -1.055570 0.415735
v -0.612373 -1.207107 0.353554
v -0.481138 -1.331470 0.277786
v -0.331414 -1.423880 0.191342
v -0.168953 -1.480785 0.097546
v 0.000000 -1.500000 0.000000
v -1.000000 -0.500000 0.000000
v -0.980785 -0.695090 0.000000
v -0.923880 -0.882683 0.000000
v -0.831470 -1.055570 0.000000
v -0.707107 -1.207107 0.000000
v -0.555570 -1.331470 0.000000
v -0.382684 -1.423880 0.000000
v -0.195090 -1.480785 0.000000
v -0.866025 -0.500000 -0.500000
v -0.849385 -0.695090 -0.490392
v -0.800103 -0.882683 -0.461940
v -0.720074 -1.055570 -0.415735
v -0.612373 -1.207107 -0.353553
v -0.481138 -1.331470 -0.277785
v -0.331414 -1.423880 -0.191341
v -0.168953 -1.480785 -0.097545
v -0.500000 -0.500000 -0.866025
v -0.490393 -0.695090 -0.849385
v -0.461940 -0.882683 -0.800103
v -0.415735 -1.055570 -0.720074
v -0.353553 -1.207107 -0.612372
v -0.277785 -1.331470 -0.481138
v -0.191342 -1.423880 -0.331413
v -0.097545 -1.480785 -0.168953
v -0.000000 -0.882683 -0.923880
v -0.000000 -1.480785 -0.195090
v 0.000000 1.423880 -0.382683
v 0.000000 1.207107 -0.707107
v 0.000000 1.055570 -0.831470
v 0.000000 0.882683 -0.923880
v 0.000000 0.695090 -0.980785
v 0.000000 0.500000 -1.000000
v 0.097545 1.480785 -0.168953
v 0.191342 1.423880 -0.331414
v 0.277785 1.331470 -0.481138
v 0.353554 1.207107 -0.612372
v 0.415735 1.055570 -0.720074
v 0.461940 0.882683 -0.800103
v 0.490393 0.695090 -0.849385
v 0.500000 0.500000 -0.866025
v 0.168953 1.480785 -0.097545
v 0.331414 1.423880 -0.191342
v 0.481138 1.331470 -0.277785
v 0.612373 1.207107 -0.353553
v 0.720074 1.055570 -0.415735
v 0.800103 0.882683 -0.461940
v 0.849385 0.695090 -0.490392
v 0.866026 0.500000 -0.500000
v 0.195091 1.480785 0.000000
v 0.382684 1.423880 0.000000
v 0.555571 1.331470 0.000000
v 0.707107 1.207107 0.000000
v 0.831470 1.055570 0.000000
v 0.923880 0.882683 0.000000
v 0.980786 0.695090 0.000000
v 1.000000 0.500000 0.000000
v 0.168953 1.480785 0.097546
v 0.331414 1.423880 0.191342
v 0.481138 1.331470 0.277786
v 0.612373 1.207107 0.353554
v 0.720074 1.055570 0.415735
v 0.800103 0.882683 0.461940
v 0.849385 0.695090 0.490393
v 0.866026 0.500000 0.500000
v 0.097545 1.480785 0.168954
v 0.191342 1.423880 0.331414
v 0.277785 1.331470 0.481138
v 0.353554 1.207107 0.612373
v 0.415735 1.055570 0.720074
v 0.461940 0.882683 0.800104
v 0.490393 0.695090 0.849386
v 0.500000 0.500000 0.866026
v -0.000000 1.480785 0.195091
v 0.000000 1.423880 0.382684
v 0.000000 1.331470 0.555571
v -0.000000 1.207107 0.707107
v -0.000000 1.055570 0.831470
v -0.000000 0.882683 0.923880
v -0.000000 0.695090 0.980786
v -0.000000 0.500000 1.000000
v -0.097545 1.480785 0.168954
v -0.191342 1.423880 0.331414
v -0.277785 1.331470 0.481138
v -0.353554 1.207107 0.612373
v -0.415735 1.055570 0.720074
v -0.461940 0.882683 0.800104
v -0.490393 0.695090 0.849385
v -0.500000 0.500000 0.866026
v -0.000000 1.500000 0.000000
v -0.168953 1.480785 0.097546
v -0.331414 1.423880 0.191342
v -0.481138 1.331470 0.277786
v -0.612373 1.207107 0.353554
v -0.720074 1.055570 0.415735
v -0.800103 0.882683 0.461940
v -0.849385 0.695090 0.490393
v -0.866026 0.500000 0.500000
v -0.195091 1.480785 0.000000
v -0.382684 1.423880 0.000000
v -0.555570 1.331470 0.000000
v -0.707107 1.207107 0.000000
v -0.831470 1.055570 0.000000
v -0.923880 0.882683 0.000000
v -0.980785 0.695090 0.000000
v -1.000000 0.500000 0.000000
v -0.168953 1.480785 -0.097545
v -0.331414 1.423880 -0.191342
v -0.481138 1.331470 -0.277785
v -0.612373 1.207107 -0.353553
v -0.720074 1.055570 -0.415735
v -0.800103 0.882683 -0.461940
v -0.849385 0.695090 -0.490393
v -0.866025 0.500000 -0.500000
v -0.097545 1.480785 -0.168953
v -0.191342 1.423880 -0.331413
v -0.277785 1.331470 -0.481138
v -0.353553 1.207107 -0.612372
v -0.415735 1.055570 -0.720074
v -0.461940 0.882683 -0.800103
v -0.490393 0.695090 -0.849385
v -0.500000 0.500000 -0.866025
v -0.000000 1.480785 -0.195090
v 0.000000 1.331470 -0.555570
vt 0.773336 0.328244
vt 0.798469 0.354002
vt 0.714750 0.402522
vt 0.705862 0.367649
vt 0.751644 0.306052
vt 0.698171 0.337584
vt 0.732346 0.286481
vt 0.691243 0.310986
vt 0.714689 0.268826
vt 0.684780 0.286868
vt 0.698092 0.252530
vt 0.678554 0.264456
vt 0.682046 0.237109
vt 0.672368 0.243078
vt 0.666069 0.222034
vt 0.828517 0.384451
vt 0.725551 0.443917
vt 0.661002 0.243408
vt 0.606639 0.443940
vt 0.617983 0.402687
vt 0.627723 0.368040
vt 0.636095 0.338156
vt 0.643394 0.311656
vt 0.649856 0.287538
vt 0.655670 0.265015
vt 0.582048 0.307612
vt 0.601620 0.288312
vt 0.619276 0.270655
vt 0.635573 0.254057
vt 0.650994 0.238011
vt 0.503636 0.384498
vt 0.534092 0.354443
vt 0.559854 0.329307
vt 0.645025 0.228333
vt 0.444175 0.281506
vt 0.485574 0.270711
vt 0.520451 0.261825
vt 0.550518 0.254136
vt 0.577117 0.247208
vt 0.601235 0.240745
vt 0.623647 0.234519
vt 0.576448 0.199360
vt 0.600567 0.205822
vt 0.623089 0.211635
vt 0.644695 0.216968
vt 0.444175 0.162595
vt 0.485423 0.173944
vt 0.520067 0.183686
vt 0.549950 0.192060
vt 0.533670 0.090067
vt 0.558802 0.115825
vt 0.580494 0.138017
vt 0.599793 0.157587
vt 0.617449 0.175243
vt 0.634047 0.191538
vt 0.650092 0.206959
vt 0.503621 0.059617
vt 0.647359 0.157201
vt 0.653585 0.179613
vt 0.659771 0.200991
vt 0.606588 0.000152
vt 0.617388 0.041546
vt 0.626276 0.076420
vt 0.633967 0.106485
vt 0.640895 0.133083
vt 0.714155 0.041381
vt 0.704416 0.076029
vt 0.696043 0.105913
vt 0.688744 0.132412
vt 0.682282 0.156531
vt 0.676469 0.179054
vt 0.671136 0.200660
vt 0.725499 0.000129
vt 0.712862 0.173413
vt 0.696566 0.190011
vt 0.681144 0.206057
vt 0.828502 0.059570
vt 0.798046 0.089626
vt 0.772285 0.114762
vt 0.750090 0.136456
vt 0.730518 0.155756
vt 0.811688 0.182243
vt 0.781621 0.189933
vt 0.755022 0.196861
vt 0.730903 0.203324
vt 0.708491 0.209550
vt 0.687113 0.215735
vt 0.887963 0.162562
vt 0.846564 0.173358
vt 0.709050 0.232433
vt 0.687443 0.227101
vt 0.887963 0.281473
vt 0.846715 0.270125
vt 0.812071 0.260383
vt 0.583312 0.605144
vt 0.583312 0.444198
vt 0.666624 0.444198
vt 0.666624 0.605144
vt 0.782189 0.252009
vt 0.749936 0.444198
vt 0.749936 0.605144
vt 0.755690 0.244709
vt 0.833247 0.444198
vt 0.833247 0.605144
vt 0.731572 0.238247
vt 0.916559 0.444198
vt 0.916559 0.605144
vt 0.999871 0.444198
vt 0.999871 0.605144
vt 0.000129 0.605144
vt 0.000129 0.444198
vt 0.083441 0.444198
vt 0.083441 0.605144
vt 0.166753 0.444198
vt 0.166753 0.605144
vt 0.250064 0.444198
vt 0.250064 0.605144
vt 0.333376 0.444198
vt 0.333376 0.605144
vt 0.416688 0.444198
vt 0.416688 0.605144
vt 0.500000 0.444198
vt 0.500000 0.605144
vt 0.190000 0.191538
vt 0.206046 0.206959
vt 0.200649 0.216967
vt 0.179042 0.211635
vt 0.173403 0.175242
vt 0.156520 0.205822
vt 0.155747 0.157587
vt 0.132402 0.199360
vt 0.136448 0.138017
vt 0.105904 0.192060
vt 0.114756 0.115825
vt 0.076021 0.183686
vt 0.089624 0.090067
vt 0.041377 0.173944
vt 0.059575 0.059617
vt 0.000129 0.162595
vt 0.222023 0.222034
vt 0.041528 0.270711
vt 0.000129 0.281506
vt 0.200979 0.228333
vt 0.179601 0.234519
vt 0.157189 0.240745
vt 0.133071 0.247208
vt 0.106472 0.254136
vt 0.076404 0.261825
vt 0.157574 0.288312
vt 0.138002 0.307612
vt 0.115808 0.329307
vt 0.090046 0.354443
vt 0.059590 0.384498
vt 0.206948 0.238011
vt 0.191527 0.254057
vt 0.175230 0.270655
vt 0.216956 0.243408
vt 0.211624 0.265015
vt 0.205810 0.287537
vt 0.199348 0.311656
vt 0.192049 0.338156
vt 0.183677 0.368040
vt 0.173937 0.402687
vt 0.162593 0.443940
vt 0.254125 0.337584
vt 0.261816 0.367649
vt 0.270704 0.402522
vt 0.281504 0.443917
vt 0.228322 0.243078
vt 0.234507 0.264456
vt 0.240734 0.286868
vt 0.247197 0.310986
vt 0.238000 0.237109
vt 0.254046 0.252530
vt 0.270643 0.268826
vt 0.288299 0.286481
vt 0.307598 0.306052
vt 0.329290 0.328244
vt 0.354423 0.354002
vt 0.384471 0.384451
vt 0.338142 0.252009
vt 0.368025 0.260383
vt 0.402669 0.270125
vt 0.443917 0.281473
vt 0.243397 0.227101
vt 0.265004 0.232433
vt 0.287526 0.238247
vt 0.311644 0.244709
vt 0.264445 0.209550
vt 0.286857 0.203324
vt 0.310976 0.196861
vt 0.337575 0.189933
vt 0.367642 0.182243
vt 0.402518 0.173358
vt 0.443917 0.162562
vt 0.243067 0.215735
vt 0.328238 0.114762
vt 0.354000 0.089626
vt 0.384456 0.059570
vt 0.237098 0.206057
vt 0.252520 0.190011
vt 0.268816 0.173413
vt 0.286472 0.155756
vt 0.306044 0.136456
vt 0.232422 0.179053
vt 0.238236 0.156531
vt 0.244698 0.132412
vt 0.251997 0.105913
vt 0.260370 0.076028
vt 0.270109 0.041381
vt 0.281453 0.000129
vt 0.227090 0.200660
vt 0.182230 0.076420
vt 0.173342 0.041546
vt 0.162542 0.000152
vt 0.215724 0.200990
vt 0.209539 0.179612
vt 0.203313 0.157201
vt 0.196849 0.133083
vt 0.189921 0.106485
vn -0.0000 -0.3771 -0.9262
vn -0.0000 -0.1921 -0.9814
vn 0.4907 -0.1921 -0.8499
vn 0.4631 -0.3771 -0.8021
vn 0.0000 -0.5482 -0.8363
vn 0.4182 -0.5482 -0.7243
vn -0.0000 -0.6991 -0.7150
vn 0.3575 -0.6991 -0.6192
vn -0.0000 -0.8240 -0.5666
vn 0.2833 -0.8240 -0.4907
vn -0.0000 -0.9181 -0.3964
vn 0.1982 -0.9181 -0.3433
vn -0.0000 -0.9776 -0.2107
vn 0.1053 -0.9776 -0.1825
vn 0.0000 -1.0000 -0.0000
vn -0.0000 -0.0487 -0.9988
vn 0.4994 -0.0487 -0.8650
vn 0.1825 -0.9776 -0.1053
vn 0.8650 -0.0487 -0.4994
vn 0.8499 -0.1921 -0.4907
vn 0.8021 -0.3771 -0.4631
vn 0.7243 -0.5482 -0.4182
vn 0.6192 -0.6991 -0.3575
vn 0.4907 -0.8240 -0.2833
vn 0.3433 -0.9181 -0.1982
vn 0.8363 -0.5482 0.0000
vn 0.7150 -0.6991 -0.0000
vn 0.5666 -0.8240 -0.0000
vn 0.3964 -0.9181 0.0000
vn 0.2107 -0.9776 0.0000
vn 0.9988 -0.0487 0.0000
vn 0.9814 -0.1921 0.0000
vn 0.9262 -0.3771 0.0000
vn 0.1825 -0.9776 0.1053
vn 0.8650 -0.0487 0.4994
vn 0.8499 -0.1921 0.4907
vn 0.8021 -0.3771 0.4631
vn 0.7243 -0.5482 0.4182
vn 0.6192 -0.6991 0.3575
vn 0.4907 -0.8240 0.2833
vn 0.3433 -0.9181 0.1982
vn 0.3575 -0.6991 0.6192
vn 0.2833 -0.8240 0.4907
vn 0.1982 -0.9181 0.3433
vn 0.1053 -0.9776 0.1825
vn 0.4994 -0.0487 0.8650
vn 0.4907 -0.1921 0.8499
vn 0.4631 -0.3771 0.8021
vn 0.4182 -0.5482 0.7243
vn -0.0000 -0.1921 0.9814
vn -0.0000 -0.3771 0.9262
vn -0.0000 -0.5482 0.8363
vn -0.0000 -0.6991 0.7150
vn 0.0000 -0.8240 0.5666
vn 0.0000 -0.9181 0.3964
vn 0.0000 -0.9776 0.2107
vn -0.0000 -0.0487 0.9988
vn -0.2833 -0.8240 0.4907
vn -0.1982 -0.9181 0.3433
vn -0.1053 -0.9776 0.1825
vn -0.4994 -0.0487 0.8650
vn -0.4907 -0.1921 0.8499
vn -0.4631 -0.3771 0.8021
vn -0.4182 -0.5482 0.7243
vn -0.3575 -0.6991 0.6192
vn -0.8499 -0.1921 0.4907
vn -0.8021 -0.3771 0.4631
vn -0.7243 -0.5482 0.4182
vn -0.6192 -0.6991 0.3575
vn -0.4907 -0.8240 0.2833
vn -0.3433 -0.9181 0.1982
vn -0.1825 -0.9776 0.1053
vn -0.8650 -0.0487 0.4994
vn -0.5666 -0.8240 -0.0000
vn -0.3964 -0.9181 -0.0000
vn -0.2107 -0.9776 -0.0000
vn -0.9988 -0.0487 -0.0000
vn -0.9814 -0.1921 -0.0000
vn -0.9262 -0.3771 -0.0000
vn -0.8363 -0.5482 -0.0000
vn -0.7150 -0.6991 0.0000
vn -0.8021 -0.3771 -0.4631
vn -0.7243 -0.5482 -0.4182
vn -0.6192 -0.6991 -0.3575
vn -0.4907 -0.8240 -0.2833
vn -0.3433 -0.9181 -0.1982
vn -0.1825 -0.9776 -0.1053
vn -0.8650 -0.0487 -0.4994
vn -0.8499 -0.1921 -0.4907
vn -0.1982 -0.9181 -0.3433
vn -0.1053 -0.9776 -0.1825
vn -0.4994 -0.0487 -0.8650
vn -0.4907 -0.1921 -0.8499
vn -0.4631 -0.3771 -0.8021
vn 0.8650 0.0487 0.4994
vn 0.4994 0.0487 0.8650
vn -0.4182 -0.5482 -0.7243
vn -0.0000 0.0487 0.9988
vn -0.3575 -0.6991 -0.6192
vn -0.4994 0.0487 0.8650
vn -0.2833 -0.8240 -0.4907
vn -0.8650 0.0487 0.4994
vn -0.9988 0.0487 -0.0000
vn -0.8650 0.0487 -0.4994
vn -0.4994 0.0487 -0.8650
vn -0.0000 0.0487 -0.9988
vn 0.4994 0.0487 -0.8650
vn 0.8650 0.0487 -0.4994
vn 0.9988 0.0487 0.0000
vn -0.0000 0.9181 -0.3964
vn -0.0000 0.9776 -0.2107
vn 0.1053 0.9776 -0.1825
vn 0.1982 0.9181 -0.3433
vn -0.0000 0.8240 -0.5666
vn 0.2833 0.8240 -0.4907
vn -0.0000 0.6991 -0.7150
vn 0.3575 0.6991 -0.6192
vn -0.0000 0.5482 -0.8363
vn 0.4182 0.5482 -0.7243
vn -0.0000 0.3771 -0.9262
vn 0.4631 0.3771 -0.8021
vn -0.0000 0.1921 -0.9814
vn 0.4907 0.1921 -0.8499
vn -0.0000 1.0000 0.0000
vn 0.8499 0.1921 -0.4907
vn 0.1825 0.9776 -0.1053
vn 0.3433 0.9181 -0.1982
vn 0.4907 0.8240 -0.2833
vn 0.6192 0.6991 -0.3575
vn 0.7243 0.5482 -0.4182
vn 0.8021 0.3771 -0.4631
vn 0.7150 0.6991 0.0000
vn 0.8363 0.5482 0.0000
vn 0.9262 0.3771 -0.0000
vn 0.9814 0.1921 0.0000
vn 0.2107 0.9776 -0.0000
vn 0.3964 0.9181 -0.0000
vn 0.5666 0.8240 0.0000
vn 0.1825 0.9776 0.1053
vn 0.3433 0.9181 0.1982
vn 0.4907 0.8240 0.2833
vn 0.6192 0.6991 0.3575
vn 0.7243 0.5482 0.4182
vn 0.8021 0.3771 0.4631
vn 0.8499 0.1921 0.4907
vn 0.4182 0.5482 0.7243
vn 0.4631 0.3771 0.8021
vn 0.4907 0.1921 0.8499
vn 0.1053 0.9776 0.1825
vn 0.1982 0.9181 0.3433
vn 0.2833 0.8240 0.4907
vn 0.3575 0.6991 0.6192
vn -0.0000 0.9776 0.2107
vn -0.0000 0.9181 0.3964
vn 0.0000 0.8240 0.5666
vn -0.0000 0.6991 0.7150
vn -0.0000 0.5482 0.8363
vn -0.0000 0.3771 0.9262
vn -0.0000 0.1921 0.9814
vn -0.4182 0.5482 0.7243
vn -0.4631 0.3771 0.8021
vn -0.4907 0.1921 0.8499
vn -0.1053 0.9776 0.1825
vn -0.1982 0.9181 0.3433
vn -0.2833 0.8240 0.4907
vn -0.3575 0.6991 0.6192
vn -0.3433 0.9181 0.1982
vn -0.4907 0.8240 0.2833
vn -0.6192 0.6991 0.3575
vn -0.7243 0.5482 0.4182
vn -0.8021 0.3771 0.4631
vn -0.8499 0.1921 0.4907
vn -0.1825 0.9776 0.1053
vn -0.9262 0.3771 -0.0000
vn -0.9814 0.1921 -0.0000
vn -0.2107 0.9776 -0.0000
vn -0.3964 0.9181 -0.0000
vn -0.5666 0.8240 0.0000
vn -0.7150 0.6991 -0.0000
vn -0.8363 0.5482 -0.0000
vn -0.3433 0.9181 -0.1982
vn -0.4907 0.8240 -0.2833
vn -0.6192 0.6991 -0.3575
vn -0.7243 0.5482 -0.4182
vn -0.8021 0.3771 -0.4631
vn -0.8499 0.1921 -0.4907
vn -0.1825 0.9776 -0.1053
vn -0.4631 0.3771 -0.8021
vn -0.4907 0.1921 -0.8499
vn -0.1053 0.9776 -0.1825
vn -0.1982 0.9181 -0.3433
vn -0.2833 0.8240 -0.4907
vn -0.3575 0.6991 -0.6192
vn -0.4182 0.5482 -0.7243
s 1
f 96/1/1 2/2/2 8/3/3 9/4/4
f 3/5/5 96/1/1 9/4/4 10/6/6
f 4/7/7 3/5/5 10/6/6 11/8/8
f 5/9/9 4/7/7 11/8/8 12/10/10
f 6/11/11 5/9/9 12/10/10 13/12/12
f 97/13/13 6/11/11 13/12/12 14/14/14
f 71/15/15 97/13/13 14/14/14
f 2/2/2 1/16/16 7/17/17 8/3/3
f 71/15/15 14/14/14 22/18/18
f 8/3/3 7/17/17 15/19/19 16/20/20
f 9/4/4 8/3/3 16/20/20 17/21/21
f 10/6/6 9/4/4 17/21/21 18/22/22
f 11/8/8 10/6/6 18/22/22 19/23/23
f 12/10/10 11/8/8 19/23/23 20/24/24
f 13/12/12 12/10/10 20/24/24 21/25/25
f 14/14/14 13/12/12 21/25/25 22/18/18
f 19/23/23 18/22/22 26/26/26 27/27/27
f 20/24/24 19/23/23 27/27/27 28/28/28
f 21/25/25 20/24/24 28/28/28 29/29/29
f 22/18/18 21/25/25 29/29/29 30/30/30
f 71/15/15 22/18/18 30/30/30
f 16/20/20 15/19/19 23/31/31 24/32/32
f 17/21/21 16/20/20 24/32/32 25/33/33
f 18/22/22 17/21/21 25/33/33 26/26/26
f 71/15/15 30/30/30 38/34/34
f 24/32/32 23/31/31 31/35/35 32/36/36
f 25/33/33 24/32/32 32/36/36 33/37/37
f 26/26/26 25/33/33 33/37/37 34/38/38
f 27/27/27 26/26/26 34/38/38 35/39/39
f 28/28/28 27/27/27 35/39/39 36/40/40
f 29/29/29 28/28/28 36/40/40 37/41/41
f 30/30/30 29/29/29 37/41/41 38/34/34
f 36/40/40 35/39/39 43/42/42 44/43/43
f 37/41/41 36/40/40 44/43/43 45/44/44
f 38/34/34 37/41/41 45/44/44 46/45/45
f 71/15/15 38/34/34 46/45/45
f 32/36/36 31/35/35 39/46/46 40/47/47
f 33/37/37 32/36/36 40/47/47 41/48/48
f 34/38/38 33/37/37 41/48/48 42/49/49
f 35/39/39 34/38/38 42/49/49 43/42/42
f 41/48/48 40/47/47 48/50/50 49/51/51
f 42/49/49 41/48/48 49/51/51 50/52/52
f 43/42/42 42/49/49 50/52/52 51/53/53
f 44/43/43 43/42/42 51/53/53 52/54/54
f 45/44/44 44/43/43 52/54/54 53/55/55
f 46/45/45 45/44/44 53/55/55 54/56/56
f 71/15/15 46/45/45 54/56/56
f 40/47/47 39/46/46 47/57/57 48/50/50
f 53/55/55 52/54/54 60/58/58 61/59/59
f 54/56/56 53/55/55 61/59/59 62/60/60
f 71/15/15 54/56/56 62/60/60
f 48/50/50 47/57/57 55/61/61 56/62/62
f 49/51/51 48/50/50 56/62/62 57/63/63
f 50/52/52 49/51/51 57/63/63 58/64/64
f 51/53/53 50/52/52 58/64/64 59/65/65
f 52/54/54 51/53/53 59/65/65 60/58/58
f 57/63/63 56/62/62 64/66/66 65/67/67
f 58/64/64 57/63/63 65/67/67 66/68/68
f 59/65/65 58/64/64 66/68/68 67/69/69
f 60/58/58 59/65/65 67/69/69 68/70/70
f 61/59/59 60/58/58 68/70/70 69/71/71
f 62/60/60 61/59/59 69/71/71 70/72/72
f 71/15/15 62/60/60 70/72/72
f 56/62/62 55/61/61 63/73/73 64/66/66
f 69/71/71 68/70/70 77/74/74 78/75/75
f 70/72/72 69/71/71 78/75/75 79/76/76
f 71/15/15 70/72/72 79/76/76
f 64/66/66 63/73/73 72/77/77 73/78/78
f 65/67/67 64/66/66 73/78/78 74/79/79
f 66/68/68 65/67/67 74/79/79 75/80/80
f 67/69/69 66/68/68 75/80/80 76/81/81
f 68/70/70 67/69/69 76/81/81 77/74/74
f 75/80/80 74/79/79 82/82/82 83/83/83
f 76/81/81 75/80/80 83/83/83 84/84/84
f 77/74/74 76/81/81 84/84/84 85/85/85
f 78/75/75 77/74/74 85/85/85 86/86/86
f 79/76/76 78/75/75 86/86/86 87/87/87
f 71/15/15 79/76/76 87/87/87
f 73/78/78 72/77/77 80/88/88 81/89/89
f 74/79/79 73/78/78 81/89/89 82/82/82
f 87/87/87 86/86/86 94/90/90 95/91/91
f 71/15/15 87/87/87 95/91/91
f 81/89/89 80/88/88 88/92/92 89/93/93
f 82/82/82 81/89/89 89/93/93 90/94/94
f 31/95/35 135/96/95 143/97/96 39/98/46
f 83/83/83 82/82/82 90/94/94 91/99/97
f 39/98/46 143/97/96 151/100/98 47/101/57
f 84/84/84 83/83/83 91/99/97 92/102/99
f 47/101/57 151/100/98 159/103/100 55/104/61
f 85/85/85 84/84/84 92/102/99 93/105/101
f 55/104/61 159/103/100 168/106/102 63/107/73
f 86/86/86 85/85/85 93/105/101 94/90/90
f 91/99/97 90/94/94 96/1/1 3/5/5
f 63/107/73 168/106/102 176/108/103 72/109/77
f 92/102/99 91/99/97 3/5/5 4/7/7
f 72/110/77 176/111/103 184/112/104 80/113/88
f 93/105/101 92/102/99 4/7/7 5/9/9
f 80/113/88 184/112/104 192/114/105 88/115/92
f 94/90/90 93/105/101 5/9/9 6/11/11
f 192/114/105 103/116/106 1/117/16 88/115/92
f 95/91/91 94/90/90 6/11/11 97/13/13
f 1/117/16 103/116/106 111/118/107 7/119/17
f 7/119/17 111/118/107 119/120/108 15/121/19
f 71/15/15 95/91/91 97/13/13
f 89/93/93 88/92/92 1/16/16 2/2/2
f 15/121/19 119/120/108 127/122/109 23/123/31
f 90/94/94 89/93/93 2/2/2 96/1/1
f 31/95/35 23/123/31 127/122/109 135/96/95
f 98/124/110 193/125/111 104/126/112 105/127/113
f 194/128/114 98/124/110 105/127/113 106/129/115
f 99/130/116 194/128/114 106/129/115 107/131/117
f 100/132/118 99/130/116 107/131/117 108/133/119
f 101/134/120 100/132/118 108/133/119 109/135/121
f 102/136/122 101/134/120 109/135/121 110/137/123
f 103/138/106 102/136/122 110/137/123 111/139/107
f 193/125/111 160/140/124 104/126/112
f 111/139/107 110/137/123 118/141/125 119/142/108
f 104/126/112 160/140/124 112/143/126
f 105/127/113 104/126/112 112/143/126 113/144/127
f 106/129/115 105/127/113 113/144/127 114/145/128
f 107/131/117 106/129/115 114/145/128 115/146/129
f 108/133/119 107/131/117 115/146/129 116/147/130
f 109/135/121 108/133/119 116/147/130 117/148/131
f 110/137/123 109/135/121 117/148/131 118/141/125
f 116/147/130 115/146/129 123/149/132 124/150/133
f 117/148/131 116/147/130 124/150/133 125/151/134
f 118/141/125 117/148/131 125/151/134 126/152/135
f 119/142/108 118/141/125 126/152/135 127/153/109
f 112/143/126 160/140/124 120/154/136
f 113/144/127 112/143/126 120/154/136 121/155/137
f 114/145/128 113/144/127 121/155/137 122/156/138
f 115/146/129 114/145/128 122/156/138 123/149/132
f 121/155/137 120/154/136 128/157/139 129/158/140
f 122/156/138 121/155/137 129/158/140 130/159/141
f 123/149/132 122/156/138 130/159/141 131/160/142
f 124/150/133 123/149/132 131/160/142 132/161/143
f 125/151/134 124/150/133 132/161/143 133/162/144
f 126/152/135 125/151/134 133/162/144 134/163/145
f 127/153/109 126/152/135 134/163/145 135/164/95
f 120/154/136 160/140/124 128/157/139
f 133/162/144 132/161/143 140/165/146 141/166/147
f 134/163/145 133/162/144 141/166/147 142/167/148
f 135/164/95 134/163/145 142/167/148 143/168/96
f 128/157/139 160/140/124 136/169/149
f 129/158/140 128/157/139 136/169/149 137/170/150
f 130/159/141 129/158/140 137/170/150 138/171/151
f 131/160/142 130/159/141 138/171/151 139/172/152
f 132/161/143 131/160/142 139/172/152 140/165/146
f 137/170/150 136/169/149 144/173/153 145/174/154
f 138/171/151 137/170/150 145/174/154 146/175/155
f 139/172/152 138/171/151 146/175/155 147/176/156
f 140/165/146 139/172/152 147/176/156 148/177/157
f 141/166/147 140/165/146 148/177/157 149/178/158
f 142/167/148 141/166/147 149/178/158 150/179/159
f 143/168/96 142/167/148 150/179/159 151/180/98
f 136/169/149 160/140/124 144/173/153
f 149/178/158 148/177/157 156/181/160 157/182/161
f 150/179/159 149/178/158 157/182/161 158/183/162
f 151/180/98 150/179/159 158/183/162 159/184/100
f 144/173/153 160/140/124 152/185/163
f 145/174/154 144/173/153 152/185/163 153/186/164
f 146/175/155 145/174/154 153/186/164 154/187/165
f 147/176/156 146/175/155 154/187/165 155/188/166
f 148/177/157 147/176/156 155/188/166 156/181/160
f 154/187/165 153/186/164 162/189/167 163/190/168
f 155/188/166 154/187/165 163/190/168 164/191/169
f 156/181/160 155/188/166 164/191/169 165/192/170
f 157/182/161 156/181/160 165/192/170 166/193/171
f 158/183/162 157/182/161 166/193/171 167/194/172
f 159/184/100 158/183/162 167/194/172 168/195/102
f 152/185/163 160/140/124 161/196/173
f 153/186/164 152/185/163 161/196/173 162/189/167
f 167/194/172 166/193/171 174/197/174 175/198/175
f 168/195/102 167/194/172 175/198/175 176/199/103
f 161/196/173 160/140/124 169/200/176
f 162/189/167 161/196/173 169/200/176 170/201/177
f 163/190/168 162/189/167 170/201/177 171/202/178
f 164/191/169 163/190/168 171/202/178 172/203/179
f 165/192/170 164/191/169 172/203/179 173/204/180
f 166/193/171 165/192/170 173/204/180 174/197/174
f 171/202/178 170/201/177 178/205/181 179/206/182
f 172/203/179 171/202/178 179/206/182 180/207/183
f 173/204/180 172/203/179 180/207/183 181/208/184
f 174/197/174 173/204/180 181/208/184 182/209/185
f 175/198/175 174/197/174 182/209/185 183/210/186
f 176/199/103 175/198/175 183/210/186 184/211/104
f 169/200/176 160/140/124 177/212/187
f 170/201/177 169/200/176 177/212/187 178/205/181
f 183/210/186 182/209/185 190/213/188 191/214/189
f 184/211/104 183/210/186 191/214/189 192/215/105
f 177/212/187 160/140/124 185/216/190
f 178/205/181 177/212/187 185/216/190 186/217/191
f 179/206/182 178/205/181 186/217/191 187/218/192
f 180/207/183 179/206/182 187/218/192 188/219/193
f 181/208/184 180/207/183 188/219/193 189/220/194
f 182/209/185 181/208/184 189/220/194 190/213/188
f 188/219/193 187/218/192 194/128/114 99/130/116
f 189/220/194 188/219/193 99/130/116 100/132/118
f 190/213/188 189/220/194 100/132/118 101/134/120
f 191/214/189 190/213/188 101/134/120 102/136/122
f 192/215/105 191/214/189 102/136/122 103/138/106
f 185/216/190 160/140/124 193/125/111
f 186/217/191 185/216/190 193/125/111 98/124/110
f 187/218/192 186/217/191 98/124/110 194/128/114
