# Blender v2.80 (sub 75) OBJ File: ''
# www.blender.org
o Icosphere_Icosphere.001
v 0.000000 -2.321239 0.000000
v 3.666926 -1.038103 2.664146
v -1.400614 -1.038104 4.310719
v -4.532562 -1.038094 0.000000
v -1.400614 -1.038104 -4.310719
v 3.666926 -1.038103 -2.664146
v 1.400614 1.038104 4.310719
v -3.666926 1.038103 2.664146
v -3.666926 1.038103 -2.664146
v 1.400614 1.038104 -4.310719
v 4.532562 1.038094 0.000000
v 0.000000 2.321239 0.000000
v -0.823254 -1.974572 2.533758
v 2.155350 -1.974571 1.565935
v 1.332104 -1.220362 4.099718
v 4.310712 -1.220358 0.000000
v 2.155350 -1.974571 -1.565935
v -2.664169 -1.974566 0.000000
v -3.487443 -1.220359 2.533766
v -0.823254 -1.974572 -2.533758
v -3.487443 -1.220359 -2.533766
v 1.332104 -1.220362 -4.099718
v 4.819546 -0.000000 1.565941
v 4.819546 -0.000000 -1.565941
v 0.000000 -0.000000 5.067563
v 2.978641 -0.000000 4.099743
v -4.819546 -0.000000 1.565941
v -2.978641 -0.000000 4.099743
v -2.978641 -0.000000 -4.099743
v -4.819546 -0.000000 -1.565941
v 2.978641 -0.000000 -4.099743
v 0.000000 -0.000000 -5.067563
v 3.487443 1.220359 2.533766
v -1.332104 1.220362 4.099718
v -4.310712 1.220358 0.000000
v -1.332104 1.220362 -4.099718
v 3.487443 1.220359 -2.533766
v 0.823254 1.974572 2.533758
v 2.664169 1.974566 0.000000
v -2.155350 1.974571 1.565935
v -2.155350 1.974571 -1.565935
v 0.823254 1.974572 -2.533758
vt 0.256927 0.235000
vt 0.404827 0.282207
vt 0.256461 0.384529
vt 0.506339 0.318212
vt 0.493874 0.165560
vt 0.107209 0.282209
vt 0.163336 0.116649
vt 0.347273 0.116650
vt 0.839340 0.522740
vt 0.799656 0.627728
vt 0.741720 0.547033
vt 0.253922 0.492293
vt 0.403062 0.433441
vt 0.342647 0.512583
vt 0.000000 0.318213
vt 0.105442 0.433441
vt 0.009457 0.410260
vt 0.612490 0.749880
vt 0.633156 0.895012
vt 0.539747 0.828691
vt 0.778990 0.772857
vt 0.839340 0.907674
vt 0.730774 0.867067
vt 0.034180 0.598545
vt 0.110284 0.521008
vt 0.049281 0.660299
vt 0.023194 0.895362
vt 0.042824 0.834764
vt 0.093379 0.977763
vt 0.418316 0.632459
vt 0.389585 0.689703
vt 0.361540 0.541254
vt 0.564273 0.655673
vt 0.706248 0.694048
vt 0.877244 0.522740
vt 0.720743 0.510980
vt 0.853253 0.423694
vt 0.312965 0.765140
vt 0.245910 0.897080
vt 0.210820 0.747408
vt 0.877245 0.042187
vt 1.000000 0.141233
vt 0.853253 0.141234
vt 0.583617 0.133963
vt 0.720746 0.053946
vt 0.680665 0.195178
vt 0.583615 0.430963
vt 0.548154 0.282464
vt 0.680663 0.369749
vt 0.809053 0.282464
vt 0.959918 0.282463
vt 0.299616 0.619242
vt 1.000000 0.423694
vt 0.142661 0.892062
vt 0.107038 0.749560
vt 0.210820 0.753009
vt 0.506339 0.369750
vt 0.672840 0.786372
vt 0.506339 0.195177
vt 0.613006 0.053945
vt 0.506339 0.736369
vt 0.785597 0.000000
vt 0.265252 0.512583
vt 0.356393 0.861419
vt 0.153108 0.609772
vt 0.210820 0.512583
vt 0.639431 0.522740
vt 0.555651 0.592813
vt 0.672840 0.615063
vt 0.575221 0.975708
vt 0.513926 0.887168
vt 0.672840 1.000000
vt 0.418316 0.783429
vt 0.158709 0.512583
vt 0.000000 0.746000
vt 0.491016 0.410261
vt 0.680426 0.635573
vt 0.252383 0.000000
vt 0.408422 0.036546
vt 0.095488 0.036545
vt 0.012317 0.165560
vn 0.0491 -0.9873 0.1510
vn 0.4302 -0.8876 0.1647
vn -0.1285 -0.9873 0.0933
vn -0.1285 -0.9873 -0.0933
vn 0.0491 -0.9873 -0.1510
vn 0.7618 -0.6072 0.2256
vn 0.0208 -0.6072 0.7943
vn -0.7490 -0.6072 0.2653
vn -0.4837 -0.6072 -0.6303
vn 0.4500 -0.6072 -0.6548
vn 0.7798 -0.2665 0.5665
vn -0.2978 -0.2665 0.9167
vn -0.9638 -0.2665 0.0000
vn -0.2978 -0.2665 -0.9167
vn 0.7798 -0.2665 -0.5665
vn 0.2513 0.8876 0.3861
vn -0.2896 0.8876 0.3583
vn -0.4302 0.8876 -0.1647
vn 0.0237 0.8876 -0.4601
vn 0.4449 0.8876 -0.1196
vn 0.1285 0.9873 -0.0933
vn 0.2672 0.9439 -0.1941
vn 0.2513 0.8876 -0.3861
vn -0.0491 0.9873 -0.1510
vn -0.1021 0.9439 -0.3141
vn -0.2896 0.8876 -0.3583
vn -0.1588 0.9873 0.0000
vn -0.3303 0.9439 0.0000
vn -0.4302 0.8876 0.1647
vn -0.0491 0.9873 0.1510
vn -0.1021 0.9439 0.3141
vn 0.0237 0.8876 0.4601
vn 0.1285 0.9873 0.0933
vn 0.2672 0.9439 0.1941
vn 0.4449 0.8876 0.1196
vn 0.7490 0.6072 -0.2653
vn 0.7467 0.3848 -0.5425
vn 0.4837 0.6072 -0.6303
vn -0.0208 0.6072 -0.7943
vn -0.2852 0.3848 -0.8778
vn -0.4500 0.6072 -0.6548
vn -0.7618 0.6072 -0.2256
vn -0.9230 0.3848 0.0000
vn -0.7618 0.6072 0.2256
vn -0.4500 0.6072 0.6548
vn -0.2852 0.3848 0.8778
vn -0.0208 0.6072 0.7943
vn 0.4837 0.6072 0.6303
vn 0.7467 0.3848 0.5425
vn 0.7490 0.6072 0.2653
vn 0.2978 0.2665 -0.9167
vn 0.2852 -0.3848 -0.8778
vn 0.0208 -0.6072 -0.7943
vn -0.7798 0.2665 -0.5665
vn -0.7467 -0.3848 -0.5425
vn -0.7490 -0.6072 -0.2653
vn -0.7798 0.2665 0.5665
vn -0.7467 -0.3848 0.5425
vn -0.4837 -0.6072 0.6303
vn 0.2978 0.2665 0.9167
vn 0.2852 -0.3848 0.8778
vn 0.4500 -0.6072 0.6548
vn 0.9638 0.2665 0.0000
vn 0.9230 -0.3848 0.0000
vn 0.7618 -0.6072 -0.2256
vn 0.2896 -0.8876 -0.3583
vn 0.1021 -0.9439 -0.3141
vn -0.0237 -0.8876 -0.4601
vn -0.2513 -0.8876 -0.3861
vn -0.2672 -0.9439 -0.1941
vn -0.4449 -0.8876 -0.1196
vn -0.4449 -0.8876 0.1196
vn -0.2672 -0.9439 0.1941
vn -0.2513 -0.8876 0.3861
vn 0.4302 -0.8876 -0.1647
vn 0.3303 -0.9439 0.0000
vn 0.1588 -0.9873 0.0000
vn -0.0237 -0.8876 0.4601
vn 0.1021 -0.9439 0.3141
vn 0.2896 -0.8876 0.3583
s off
f 1/1/1 14/2/1 13/3/1
f 2/4/2 14/2/2 16/5/2
f 1/1/3 13/3/3 18/6/3
f 1/1/4 18/6/4 20/7/4
f 1/1/5 20/7/5 17/8/5
f 2/9/6 16/10/6 23/11/6
f 3/12/7 15/13/7 25/14/7
f 4/15/8 19/16/8 27/17/8
f 5/18/9 21/19/9 29/20/9
f 6/21/10 22/22/10 31/23/10
f 2/24/11 23/25/11 26/26/11
f 3/27/12 25/28/12 28/29/12
f 4/30/13 27/31/13 30/32/13
f 5/18/14 29/20/14 32/33/14
f 6/21/15 31/23/15 24/34/15
f 7/35/16 33/36/16 38/37/16
f 8/38/17 34/39/17 40/40/17
f 9/41/18 35/42/18 41/43/18
f 10/44/19 36/45/19 42/46/19
f 11/47/20 37/48/20 39/49/20
f 39/49/21 42/46/21 12/50/21
f 39/49/22 37/48/22 42/46/22
f 37/48/23 10/44/23 42/46/23
f 42/46/24 41/43/24 12/50/24
f 42/46/25 36/45/25 41/43/25
f 36/45/26 9/41/26 41/43/26
f 41/43/27 40/51/27 12/50/27
f 41/43/28 35/42/28 40/51/28
f 35/52/29 8/38/29 40/40/29
f 40/51/30 38/37/30 12/50/30
f 40/51/31 34/53/31 38/37/31
f 34/54/32 7/55/32 38/56/32
f 38/37/33 39/49/33 12/50/33
f 38/37/34 33/36/34 39/49/34
f 33/36/35 11/47/35 39/49/35
f 24/57/36 37/48/36 11/47/36
f 24/34/37 31/23/37 37/58/37
f 31/59/38 10/44/38 37/48/38
f 32/60/39 36/45/39 10/44/39
f 32/33/40 29/20/40 36/61/40
f 29/62/41 9/41/41 36/45/41
f 30/32/42 35/52/42 9/63/42
f 30/32/43 27/31/43 35/52/43
f 27/31/44 8/38/44 35/52/44
f 28/64/45 34/39/45 8/38/45
f 28/29/46 25/28/46 34/54/46
f 25/28/47 7/55/47 34/54/47
f 26/26/48 33/65/48 7/55/48
f 26/26/49 23/25/49 33/65/49
f 23/25/50 11/66/50 33/65/50
f 31/67/51 32/33/51 10/68/51
f 31/67/52 22/69/52 32/33/52
f 22/69/53 5/18/53 32/33/53
f 29/20/54 30/70/54 9/71/54
f 29/20/55 21/19/55 30/70/55
f 21/19/56 4/72/56 30/70/56
f 27/31/57 28/64/57 8/38/57
f 27/31/58 19/73/58 28/64/58
f 19/16/59 3/12/59 28/74/59
f 25/28/60 26/26/60 7/55/60
f 25/28/61 15/75/61 26/26/61
f 15/13/62 2/4/62 26/76/62
f 23/11/63 24/34/63 11/77/63
f 23/11/64 16/10/64 24/34/64
f 16/10/65 6/21/65 24/34/65
f 17/8/66 22/78/66 6/79/66
f 17/8/67 20/7/67 22/78/67
f 20/7/68 5/80/68 22/78/68
f 20/7/69 21/81/69 5/80/69
f 20/7/70 18/6/70 21/81/70
f 18/6/71 4/15/71 21/81/71
f 18/6/72 19/16/72 4/15/72
f 18/6/73 13/3/73 19/16/73
f 13/3/74 3/12/74 19/16/74
f 16/5/75 17/8/75 6/79/75
f 16/5/76 14/2/76 17/8/76
f 14/2/77 1/1/77 17/8/77
f 13/3/78 15/13/78 3/12/78
f 13/3/79 14/2/79 15/13/79
f 14/2/80 2/4/80 15/13/80
