# Blender v2.80 (sub 75) OBJ File: ''
# www.blender.org
o Cube_Cube.001
v -0.500000 -0.100000 0.500000
v -0.500000 0.000000 0.500000
v -0.500000 -0.100000 -0.400000
v -0.500000 0.000000 -0.400000
v 0.500000 -0.100000 0.500000
v 0.500000 0.000000 0.500000
v 0.500000 -0.100000 -0.400000
v 0.500000 0.000000 -0.400000
v -0.500000 0.500000 -0.400000
v 0.500000 -0.500000 -0.400000
v -0.500000 -0.500000 -0.400000
v 0.500000 0.500000 -0.400000
v -0.500000 0.500000 -0.500000
v 0.500000 -0.500000 -0.500000
v -0.500000 -0.500000 -0.500000
v 0.500000 0.500000 -0.500000
vt 0.273087 0.283858
vt 0.283957 0.171358
vt 0.283957 0.283858
vt 0.240479 0.296358
vt 0.251348 0.171358
vt 0.251348 0.296358
vt 0.273087 0.158858
vt 0.283957 0.046358
vt 0.283957 0.158858
vt 0.240478 0.171358
vt 0.229609 0.296358
vt 0.229609 0.171358
vt 0.131783 0.171358
vt 0.131783 0.296358
vt 0.131783 0.296358
vt 0.033957 0.171358
vt 0.131783 0.171358
vt 0.285489 0.825541
vt 0.274619 0.700541
vt 0.285489 0.700541
vt 0.274619 0.700541
vt 0.263750 0.825541
vt 0.263750 0.700541
vt 0.263750 0.825541
vt 0.274619 0.950541
vt 0.263750 0.950541
vt 0.285489 0.825541
vt 0.274619 0.950541
vt 0.274619 0.825541
vt 0.263750 0.825541
vt 0.155054 0.700541
vt 0.263750 0.700541
vt 0.155054 0.825541
vt 0.046358 0.700541
vt 0.155054 0.700541
vt 0.273087 0.171358
vt 0.240478 0.171358
vt 0.273087 0.046358
vt 0.240478 0.296358
vt 0.033957 0.296358
vt 0.274619 0.825541
vt 0.274619 0.825541
vt 0.285489 0.950541
vt 0.155054 0.825541
vt 0.046358 0.825541
vn -1.0000 0.0000 0.0000
vn 0.0000 0.0000 -1.0000
vn 1.0000 0.0000 0.0000
vn 0.0000 0.0000 1.0000
vn 0.0000 -1.0000 0.0000
vn 0.0000 1.0000 0.0000
s off
f 2/1/1 3/2/1 1/3/1
f 4/4/2 7/5/2 3/6/2
f 8/7/3 5/8/3 7/9/3
f 6/10/4 1/11/4 5/12/4
f 7/13/5 1/11/5 3/14/5
f 4/15/6 6/16/6 8/17/6
f 11/18/5 14/19/5 10/20/5
f 13/21/1 11/22/1 9/23/1
f 12/24/6 13/25/6 9/26/6
f 14/27/3 12/28/3 10/29/3
f 16/30/2 15/31/2 13/32/2
f 11/33/4 12/34/4 9/35/4
f 2/1/1 4/36/1 3/2/1
f 4/4/2 8/37/2 7/5/2
f 8/7/3 6/38/3 5/8/3
f 6/10/4 2/39/4 1/11/4
f 7/13/5 5/12/5 1/11/5
f 4/15/6 2/40/6 6/16/6
f 11/18/5 15/41/5 14/19/5
f 13/21/1 15/41/1 11/22/1
f 12/24/6 16/42/6 13/25/6
f 14/27/3 16/43/3 12/28/3
f 16/30/2 14/44/2 15/31/2
f 11/33/4 10/45/4 12/34/4
