# Blender v2.80 (sub 75) OBJ File: ''
# www.blender.org
o Cube_Cube.001
v -0.500000 0.500000 0.500000
v -0.500000 -0.500000 -0.500000
v -0.500000 -0.500000 0.500000
v 0.500000 -0.500000 0.500000
v 0.500000 -0.500000 -0.500000
v -0.500000 0.500000 -0.500000
vt 0.333333 0.414214
vt 0.666667 0.000000
vt 0.666667 0.414214
vt 0.804738 1.000000
vt 0.569036 0.707107
vt 0.804738 0.414214
vt 0.000000 0.585786
vt 0.333333 0.000000
vt 0.333333 0.585786
vt 0.333333 0.707107
vt 0.569036 0.414214
vt 0.569036 1.000000
vt 0.666667 0.414213
vt 1.000000 0.000000
vt 1.000000 0.414213
vt 0.333333 0.000000
vt 0.000000 0.000000
vt 0.666667 0.000000
vn -1.0000 -0.0000 0.0000
vn 0.0000 -0.0000 1.0000
vn 0.7071 0.7071 0.0000
vn 0.0000 0.0000 -1.0000
vn 0.0000 -1.0000 -0.0000
s 1
f 1/1/1 2/2/1 3/3/1
f 1/4/2 3/5/2 4/6/2
f 1/7/3 5/8/3 6/9/3
f 2/10/4 6/11/4 5/12/4
f 5/13/5 3/14/5 2/15/5
f 1/1/1 6/16/1 2/2/1
f 1/7/3 4/17/3 5/8/3
f 5/13/5 4/18/5 3/14/5
