# Blender v2.80 (sub 75) OBJ File: ''
# www.blender.org
o Cube_Cube.002
v -0.500000 -0.500000 0.500000
v -0.500000 -0.400000 0.500000
v -0.500000 -0.500000 -0.500000
v -0.500000 -0.400000 -0.500000
v 0.500000 -0.500000 -0.500000
v 0.500000 -0.400000 -0.500000
v -0.500000 -0.400000 0.400000
v -0.500000 -0.400000 0.500000
v 0.500000 -0.400000 -0.500000
v 0.400000 -0.400000 -0.500000
v -0.500000 0.400000 0.400000
v -0.500000 0.400000 0.500000
v 0.500000 0.400000 -0.500000
v 0.400000 0.400000 -0.500000
v -0.500000 0.400000 0.500000
v -0.500000 0.400000 -0.500000
v 0.500000 0.400000 -0.500000
v -0.500000 0.500000 0.500000
v -0.500000 0.500000 -0.500000
v 0.500000 0.500000 -0.500000
vt 0.802369 0.585786
vt 0.835702 0.292893
vt 0.835703 0.585786
vt 0.802369 0.292893
vt 0.835702 0.000000
vt 0.869036 0.585786
vt 0.835702 0.000000
vt 0.869036 0.000000
vt 0.333333 1.000000
vt 0.000000 1.000000
vt 0.333333 0.585786
vt 1.000000 1.000000
vt 0.666667 1.000000
vt 1.000000 0.585786
vt 0.000000 0.556497
vt 0.266667 0.029289
vt 0.266667 0.556497
vt 0.266667 0.585786
vt 0.533333 0.585786
vt 0.266667 0.000000
vt 0.533333 0.000000
vt 0.000000 0.000000
vt 0.266667 0.000000
vt 0.533333 0.292893
vt 0.769036 0.000000
vt 0.769036 0.585786
vt 0.666667 1.000000
vt 0.333333 1.000000
vt 0.666667 0.585786
vt 0.902369 0.585786
vt 0.869036 0.000000
vt 0.902369 0.000000
vt 0.802369 0.292893
vt 0.769036 0.000000
vt 0.802369 0.000000
vt 0.802369 0.585786
vt 0.769036 0.292893
vt 0.802369 0.000000
vt 0.835703 0.585786
vt 0.000000 0.029289
vt 0.000000 0.585786
vt 0.266667 0.585786
vt 0.869036 0.585786
vt 0.769036 0.585786
vn -1.0000 0.0000 0.0000
vn 0.0000 0.0000 -1.0000
vn 0.7071 0.0000 0.7071
vn 0.0000 1.0000 0.0000
vn 0.0000 -1.0000 0.0000
vn -0.7071 0.0000 -0.7071
s off
f 2/1/1 3/2/1 1/3/1
f 4/4/2 5/5/2 3/2/2
f 5/6/3 2/7/3 1/8/3
f 4/9/4 2/10/4 6/11/4
f 3/12/5 5/13/5 1/14/5
f 11/15/6 10/16/6 7/17/6
f 8/18/1 11/15/1 7/17/1
f 9/19/3 12/20/3 8/21/3
f 10/16/2 13/22/2 9/23/2
f 16/24/5 17/25/5 15/26/5
f 19/27/4 18/28/4 20/29/4
f 17/30/3 18/31/3 15/32/3
f 16/33/2 20/34/2 17/35/2
f 15/36/1 19/37/1 16/33/1
f 2/1/1 4/4/1 3/2/1
f 4/4/2 6/38/2 5/5/2
f 5/6/3 6/39/3 2/7/3
f 11/15/6 14/40/6 10/16/6
f 8/18/1 12/41/1 11/15/1
f 9/19/3 13/42/3 12/20/3
f 10/16/2 14/40/2 13/22/2
f 17/30/3 20/43/3 18/31/3
f 16/33/2 19/37/2 20/34/2
f 15/36/1 18/44/1 19/37/1
