# Blender v2.80 (sub 75) OBJ File: ''
# www.blender.org
o Cube_Cube.004
v -0.500000 -0.500000 0.500000
v -0.500000 0.500000 0.500000
v -0.500000 -0.500000 -0.500000
v -0.500000 0.500000 0.000000
v 0.500000 -0.500000 0.500000
v 0.000000 0.500000 0.500000
v 0.500000 -0.500000 -0.500000
v 0.000000 0.500000 0.000000
vt 0.191406 0.269531
vt 0.066406 0.207031
vt 0.191406 0.144531
vt 0.179687 0.910156
vt 0.117188 0.847656
vt 0.179687 0.785156
vt 0.179688 0.835938
vt 0.117187 0.773438
vt 0.242187 0.773438
vt 0.191406 0.158203
vt 0.253906 0.283203
vt 0.128906 0.283203
vt 0.121094 0.287109
vt 0.246094 0.162109
vt 0.246094 0.287109
vt 0.195312 0.863281
vt 0.132812 0.800781
vt 0.195312 0.800781
vt 0.066406 0.269531
vt 0.117188 0.910156
vt 0.117187 0.835938
vt 0.253906 0.158203
vt 0.121094 0.162109
vt 0.132812 0.863281
vn -1.0000 0.0000 0.0000
vn 0.0000 0.4472 -0.8944
vn 0.8944 0.4472 0.0000
vn 0.0000 0.0000 1.0000
vn 0.0000 -1.0000 0.0000
vn 0.0000 1.0000 0.0000
s off
f 1/1/1 4/2/1 3/3/1
f 3/4/2 8/5/2 7/6/2
f 8/7/3 5/8/3 7/9/3
f 6/10/4 1/11/4 5/12/4
f 7/13/5 1/14/5 3/15/5
f 4/16/6 6/17/6 8/18/6
f 1/1/1 2/19/1 4/2/1
f 3/4/2 4/20/2 8/5/2
f 8/7/3 6/21/3 5/8/3
f 6/10/4 2/22/4 1/11/4
f 7/13/5 5/23/5 1/14/5
f 4/16/6 2/24/6 6/17/6
